<svg width="500" height="500" viewBox="0 0 500 500" fill="none" xmlns="http://www.w3.org/2000/svg">
<path d="M92.64 317.14L77.8 317.42L70.29 317.54C67.78 317.54 65.29 317.54 62.74 317.54H62.3V317.09V304.46V304H62.8L77.75 304.07C82.75 304.07 87.75 304.18 92.75 304.23H93.02V304.5C93.02 306.64 92.93 308.77 92.89 310.88L92.64 317.14ZM92.64 317.14L92.49 310.77C92.49 308.67 92.38 306.58 92.36 304.51L92.64 304.78C87.64 304.84 82.64 304.94 77.64 304.95L62.74 305L63.24 304.5L63.19 317.13L62.74 316.69C65.21 316.69 67.67 316.69 70.14 316.74L77.57 316.86L92.64 317.14Z" fill="#EBEBEB" fill-opacity="0.04"/>
<path d="M76 333.07L61.17 333.35L53.65 333.47C51.14 333.47 48.65 333.47 46.1 333.47H45.66V333.02L45.6 320.39V319.89H46.1L61 320C66 320 71 320.12 75.95 320.17H76.22V320.44C76.22 322.58 76.14 324.71 76.09 326.82L76 333.07ZM76 333.07L75.86 326.7C75.86 324.6 75.75 322.51 75.73 320.44L76 320.71C71 320.77 66 320.87 61.05 320.88L46.1 320.94L46.6 320.44L46.55 333.07L46.1 332.63C48.57 332.63 51.03 332.63 53.5 332.68L60.94 332.8L76 333.07Z" fill="#EBEBEB" fill-opacity="0.04"/>
<path d="M76 59.71L61.13 60L53.61 60.11C51.1 60.11 48.61 60.11 46.06 60.17H45.62V59.72L45.56 47.09V46.59H46.06L61 46.64C66 46.64 71 46.76 75.95 46.81H76.22V47.08C76.22 49.22 76.14 51.35 76.09 53.46L76 59.71ZM76 59.71L75.86 53.34C75.86 51.24 75.75 49.15 75.73 47.08L76 47.35C71 47.35 66 47.51 61.05 47.52L46.1 47.58L46.6 47.08L46.55 59.71L46.1 59.27C48.57 59.27 51.03 59.27 53.5 59.27L60.94 59.39L76 59.71Z" fill="#EBEBEB" fill-opacity="0.04"/>
<path d="M453.94 59.71L439.1 60L431.59 60.11C429.08 60.11 426.59 60.11 424.04 60.17H423.6V59.72V47.09V46.59H424.1L439.05 46.65C444.05 46.65 449.05 46.77 454 46.82H454.27V47.09C454.27 49.23 454.18 51.36 454.14 53.47L453.94 59.71ZM453.94 59.71L453.8 53.34C453.75 51.24 453.68 49.15 453.66 47.08L453.94 47.35C448.94 47.35 443.94 47.51 438.99 47.52L424 47.58L424.5 47.08L424.45 59.71L424 59.27C426.47 59.27 428.93 59.27 431.4 59.27L438.83 59.39L453.94 59.71Z" fill="#EBEBEB" fill-opacity="0.04"/>
<path d="M437.26 75.64L422.43 75.92L414.91 76.03C412.4 76.03 409.91 76.03 407.36 76.09H406.92V75.64L406.86 63V62.5H407.36L422.31 62.56C427.31 62.56 432.31 62.68 437.26 62.73H437.54V63C437.54 65.14 437.46 67.27 437.41 69.38L437.26 75.64ZM437.26 75.64L437.12 69.27C437.07 67.16 437.01 65.08 436.99 63.01L437.26 63.28C432.26 63.28 427.26 63.44 422.31 63.45L407.36 63.51L407.86 63.01L407.81 75.64L407.36 75.2C409.83 75.2 412.29 75.2 414.76 75.2L422.2 75.32L437.26 75.64Z" fill="#EBEBEB" fill-opacity="0.04"/>
<path d="M360.69 223.44L345.86 223.72L338.34 223.83C335.83 223.83 333.34 223.83 330.8 223.83H330.35V223.38L330.3 210.74V210.24H330.81L345.75 210.31C350.75 210.31 355.75 210.42 360.7 210.47H361V210.74C361 212.88 360.92 215.01 360.87 217.12L360.69 223.44ZM360.69 223.44L360.55 217.06C360.5 214.96 360.44 212.88 360.42 210.8L360.69 211.08C355.69 211.08 350.69 211.24 345.74 211.24L330.8 211.3L331.29 210.8L331.24 223.44L330.8 222.99C333.26 222.99 335.72 222.99 338.19 223.05L345.63 223.16L360.69 223.44Z" fill="#EBEBEB" fill-opacity="0.04"/>
<path d="M344 239.37L329.17 239.65L321.66 239.76C319.15 239.81 316.66 239.76 314.11 239.81H313.66V239.36L313.61 226.72V226.22H314.11L329.06 226.29C334.06 226.29 339.06 226.4 344 226.45H344.28V226.72C344.28 228.86 344.19 230.99 344.15 233.1L344 239.37ZM344 239.37L343.86 232.99C343.86 230.89 343.75 228.81 343.73 226.73L344 227.01C339 227.06 334 227.17 329.06 227.17L314.11 227.23L314.61 226.73L314.55 239.37L314.11 238.92C316.57 238.92 319.04 238.92 321.51 238.98L328.94 239.09L344 239.37Z" fill="#EBEBEB" fill-opacity="0.04"/>
<path d="M327.4 223.44L312.57 223.72L305.06 223.83C302.55 223.83 300.06 223.83 297.51 223.83H297.06V223.38L297 210.8V210.3H297.51L312.45 210.37C317.45 210.37 322.45 210.48 327.4 210.53H327.68V210.8C327.68 212.94 327.59 215.07 327.55 217.18L327.4 223.44ZM327.4 223.44L327.26 217.06C327.26 214.96 327.15 212.88 327.13 210.8L327.4 211.08C322.4 211.08 317.4 211.24 312.45 211.24L297.51 211.3L298.01 210.8L298 223.44L297.56 222.99C300.02 222.99 302.48 222.99 304.96 223.05L312.39 223.16L327.4 223.44Z" fill="#EBEBEB" fill-opacity="0.04"/>
<path d="M453.94 333.07L439.1 333.35L431.59 333.47C429.08 333.47 426.59 333.47 424.04 333.47H423.6V333.02V320.39V319.89H424.1L439 320C444 320 449 320.12 453.95 320.17H454.22V320.44C454.22 322.58 454.13 324.71 454.09 326.82L453.94 333.07ZM453.94 333.07L453.8 326.7C453.75 324.6 453.68 322.51 453.66 320.44L453.94 320.71C448.94 320.77 443.94 320.87 438.99 320.88L424.04 320.94L424.54 320.44L424.49 333.07L424.04 332.63C426.51 332.63 428.97 332.63 431.44 332.68L438.87 332.8L453.94 333.07Z" fill="#EBEBEB" fill-opacity="0.04"/>
<path d="M199.93 97.28L185.09 97.56L177.58 97.67C175.07 97.67 172.58 97.67 170.03 97.73H169.59V97.28L169.54 84.65V84.15H170.04L184.99 84.21C189.99 84.21 194.99 84.32 199.99 84.38H200.26V84.65C200.26 86.79 200.17 88.92 200.13 91.02L199.93 97.28ZM199.93 97.28L199.78 90.91C199.78 88.8 199.67 86.72 199.65 84.65L199.93 84.92C194.93 84.92 189.93 85.08 184.93 85.08L170 85.15L170.5 84.65L170.45 97.28L170 96.84C172.47 96.84 174.93 96.84 177.4 96.84L184.83 96.95L199.93 97.28Z" fill="#EBEBEB" fill-opacity="0.04"/>
<path d="M43.37 402.33L95.03 402.08L146.69 402L250 401.83L353.31 401.99L404.97 402.08L456.63 402.33L404.97 402.57L353.31 402.66L250 402.82L146.69 402.66L95.03 402.57L43.37 402.33Z" fill="#232E38"/>
<path d="M178.92 463.42C242.488 463.42 294.02 455.272 294.02 445.22C294.02 435.168 242.488 427.02 178.92 427.02C115.352 427.02 63.82 435.168 63.82 445.22C63.82 455.272 115.352 463.42 178.92 463.42Z" fill="#EBEBEB" fill-opacity="0.04"/>
<path d="M423.54 402.33H271.46C271.46 381.75 263.7 277.24 347.46 277.24C431.22 277.24 423.54 381.75 423.54 402.33Z" fill="#20293A"/>
<path d="M376.23 282.32C373.73 282.1 371.12 281.98 368.42 281.98C287.81 281.98 295.27 382.53 295.27 402.33H271.45C271.45 381.75 263.7 277.24 347.45 277.24C357.28 277.079 367.049 278.803 376.23 282.32V282.32Z" fill="#232E38"/>
<path d="M124 237.88V204.2H58V177.31L133.72 80.12H154.28V177.12H174.17V204.2H154.28V237.88H124ZM88.29 177.08H127.39V126L88.29 177.08Z" fill="#475769"/>
<path d="M391.82 237.88V204.2H325.82V177.31L401.53 80.12H422.1V177.12H442V204.2H422.11V237.88H391.82ZM356.11 177.08H395.21V126L356.11 177.08Z" fill="#475769"/>
<path d="M213.35 90.37C222.68 85.27 231.01 87.05 236.67 86.97C242.33 86.89 253.82 79.06 260.42 80.24C267.02 81.42 299.38 97 304.5 104C309.62 111 318.14 128.73 318.94 132.31C319.74 135.89 317.64 156.11 318.62 160.74C319.6 165.37 316.42 172.91 314.44 176.15C312.46 179.39 307.69 191.52 306.51 193.73C305.33 195.94 275 219.91 264.38 221.42C253.76 222.93 249.63 219.92 248.47 219.26C247.31 218.6 250.81 211.05 245.3 209.26C239.79 207.47 237.73 206.57 237.73 206.57C237.73 206.57 236.17 201.94 233.27 200.85C230.37 199.76 226.27 202.85 226.27 202.85C226.27 202.85 225.03 203.54 222.62 202.43C220.21 201.32 216.83 202.81 216.83 202.81C216.009 201.312 214.663 200.172 213.05 199.61C210.24 198.61 206.95 204.55 206.95 204.55C206.95 204.55 188.58 189.19 187.57 185.42C186.56 181.65 186.57 176.64 185.16 171.97C183.75 167.3 180.88 165.11 180.83 157.27C180.78 149.43 182.45 132.87 184.51 128.94C186.57 125.01 188.37 119.49 189.66 117.76C190.95 116.03 203.7 95.64 213.35 90.37Z" fill="#FFC727"/>
<g opacity="0.3">
<path d="M213.35 90.37C222.68 85.27 231.01 87.05 236.67 86.97C242.33 86.89 253.82 79.06 260.42 80.24C267.02 81.42 299.38 97 304.5 104C309.62 111 318.14 128.73 318.94 132.31C319.74 135.89 317.64 156.11 318.62 160.74C319.6 165.37 316.42 172.91 314.44 176.15C312.46 179.39 307.69 191.52 306.51 193.73C305.33 195.94 275 219.91 264.38 221.42C253.76 222.93 249.63 219.92 248.47 219.26C247.31 218.6 250.81 211.05 245.3 209.26C239.79 207.47 237.73 206.57 237.73 206.57C237.73 206.57 236.17 201.94 233.27 200.85C230.37 199.76 226.27 202.85 226.27 202.85C226.27 202.85 225.03 203.54 222.62 202.43C220.21 201.32 216.83 202.81 216.83 202.81C216.009 201.312 214.663 200.172 213.05 199.61C210.24 198.61 206.95 204.55 206.95 204.55C206.95 204.55 188.58 189.19 187.57 185.42C186.56 181.65 186.57 176.64 185.16 171.97C183.75 167.3 180.88 165.11 180.83 157.27C180.78 149.43 182.45 132.87 184.51 128.94C186.57 125.01 188.37 119.49 189.66 117.76C190.95 116.03 203.7 95.64 213.35 90.37Z" fill="white"/>
</g>
<path d="M276 191.63C277.54 189.75 281.47 189.44 281.93 191.46C282.39 193.48 281.34 195.81 278.67 195.75C276 195.69 275.4 192.39 276 191.63Z" fill="#FFC727"/>
<path opacity="0.1" d="M278.37 195.72C275.98 195.42 275.43 192.36 276.03 191.63C276.498 191.125 277.069 190.726 277.703 190.459C278.338 190.191 279.022 190.062 279.71 190.08C279.02 190.33 277.36 191.18 277.11 192.21C276.86 193.24 276.78 195 278.37 195.72Z" fill="#1A212D"/>
<path d="M192 151.12C194.64 145.95 203.31 148.68 204.08 153.34C204.85 158 200.21 161.34 196.88 161.1C193.55 160.86 189.13 156.78 192 151.12Z" fill="#FFC727"/>
<path d="M288.11 157.66C283.96 156.36 273.53 159.03 271.41 168C270.2 173.12 276.77 183.8 283.5 184.38C290.23 184.96 295.21 177.97 296.71 172.24C298.21 166.51 294.47 159.65 288.11 157.66Z" fill="#FFC727"/>
<path opacity="0.1" d="M285.11 184.37C284.575 184.425 284.035 184.425 283.5 184.37C276.77 183.79 270.2 173.11 271.41 167.99C273.52 158.99 283.96 156.34 288.11 157.65C288.882 157.906 289.626 158.241 290.33 158.65C284.95 159.65 277.56 165.04 276.95 168.88C276.3 173 279.16 183.43 285.11 184.37Z" fill="#1A212D"/>
<path d="M256 90.12C255.66 93.55 252 95.88 249 98.21C246 100.54 240 99.54 235.81 97.55C231.62 95.56 229.16 87.35 229.27 86.74C232.03 86.74 234.51 87 236.62 86.97C240.51 86.97 247.18 83.18 253.11 81.25C254.34 83.56 256.26 87.72 256 90.12Z" fill="#FFC727"/>
<path opacity="0.1" d="M246.7 99.28C243.52 100.06 239.14 99.1 235.85 97.55C231.64 95.55 229.2 87.35 229.31 86.74C231.51 86.74 233.53 86.91 235.31 86.96C235.83 89.1 237.24 94.34 238.81 95.74C240.84 97.52 244.59 99.2 246.7 99.28Z" fill="#1A212D"/>
<path d="M289.83 119.27C292.62 117.27 297.7 119.27 298.04 123.19C298.38 127.11 293.27 129.36 289.83 126.7C289.242 126.276 288.762 125.718 288.432 125.072C288.101 124.426 287.929 123.711 287.929 122.985C287.929 122.259 288.101 121.544 288.432 120.898C288.762 120.252 289.242 119.694 289.83 119.27V119.27Z" fill="#FFC727"/>
<path opacity="0.1" d="M290.72 121.93C290.14 124.09 290.4 125.61 292.43 127.8C291.482 127.668 290.585 127.289 289.83 126.7C289.242 126.276 288.762 125.718 288.432 125.072C288.101 124.426 287.929 123.711 287.929 122.985C287.929 122.259 288.101 121.544 288.432 120.898C288.762 120.252 289.242 119.694 289.83 119.27C290.573 118.806 291.422 118.538 292.296 118.493C293.171 118.447 294.043 118.625 294.83 119.01C294.63 118.92 291.3 119.77 290.72 121.93Z" fill="#1A212D"/>
<path d="M247.57 210.7C246.949 210.029 246.168 209.527 245.3 209.24C239.78 207.43 237.73 206.55 237.73 206.55C237.73 206.55 236.17 201.92 233.27 200.83C230.37 199.74 226.27 202.83 226.27 202.83C226.94 197.14 229.37 194.83 233.47 192.67C237.57 190.51 244.78 191.49 247 197.04C248.58 200.92 248 207.2 247.57 210.7Z" fill="#FFC727"/>
<path opacity="0.1" d="M241.41 192.13C239.735 192.212 238.097 192.65 236.604 193.414C235.111 194.177 233.797 195.25 232.75 196.56C232.04 197.813 231.594 199.198 231.44 200.63C229.58 200.966 227.826 201.737 226.32 202.88C226.99 197.19 229.42 194.88 233.52 192.72C235.981 191.535 238.8 191.325 241.41 192.13V192.13Z" fill="#1A212D"/>
<path d="M218.26 115.18C211.01 119.18 206.1 130.31 206.37 134.02C206.64 137.73 209.11 143.67 212.31 146.5C219.51 152.87 233.71 149.95 237.16 146.5C240.61 143.05 244.49 132.45 243.26 127.25C241.21 118.56 225.67 111.11 218.26 115.18Z" fill="#FFC727"/>
<path opacity="0.1" d="M228.27 149.94C222.88 150.75 216.44 150.16 212.27 146.5C209.07 143.67 206.59 137.74 206.33 134.03C206.07 130.32 210.97 119.16 218.22 115.18C220.5 113.93 223.54 113.77 226.72 114.4C222.98 117.15 216.81 122.23 215.46 126.68C213.46 133.17 214.65 139.94 217.46 143.87C219.32 146.38 224.66 148.64 228.27 149.94Z" fill="#1A212D"/>
<path d="M202.5 161.87C201.133 162.795 199.511 163.271 197.86 163.23C193.97 162.97 188.81 158.23 192.16 151.59C192.772 150.442 193.728 149.514 194.893 148.935C196.058 148.356 197.375 148.155 198.66 148.36C202.17 148.67 205.73 151.05 206.26 154.18C206.473 155.691 206.228 157.23 205.558 158.601C204.888 159.972 203.823 161.11 202.5 161.87V161.87Z" fill="#FFC727"/>
<path opacity="0.1" d="M202.5 161.87C201.133 162.795 199.511 163.271 197.86 163.23C193.97 162.97 188.81 158.23 192.16 151.59C192.772 150.442 193.728 149.514 194.893 148.935C196.058 148.356 197.375 148.155 198.66 148.36C197.15 149.51 194.77 151.85 194.77 155.13C194.77 159.94 197.77 161.13 199.62 161.78C200.559 162.038 201.546 162.068 202.5 161.87V161.87Z" fill="#1A212D"/>
<path d="M283.61 131.81C283.26 132.056 282.834 132.172 282.408 132.135C281.981 132.099 281.581 131.913 281.278 131.611C280.975 131.309 280.788 130.91 280.75 130.483C280.711 130.057 280.825 129.631 281.07 129.28C281.221 128.998 281.456 128.769 281.743 128.626C282.029 128.483 282.353 128.432 282.67 128.48C283.092 128.493 283.5 128.639 283.834 128.898C284.168 129.156 284.412 129.514 284.53 129.92C284.584 130.291 284.525 130.67 284.361 131.007C284.197 131.344 283.935 131.623 283.61 131.81V131.81Z" fill="#FFC727"/>
<path opacity="0.1" d="M283.61 131.81C283.26 132.056 282.834 132.172 282.408 132.135C281.981 132.099 281.581 131.913 281.278 131.611C280.975 131.309 280.788 130.91 280.75 130.483C280.711 130.057 280.825 129.631 281.07 129.28C281.221 128.998 281.456 128.769 281.743 128.626C282.029 128.483 282.353 128.432 282.67 128.48C282.387 128.664 282.15 128.91 281.976 129.199C281.803 129.488 281.698 129.814 281.67 130.15C281.639 130.521 281.741 130.89 281.96 131.191C282.178 131.492 282.498 131.705 282.86 131.79C283.104 131.859 283.362 131.866 283.61 131.81Z" fill="#1A212D"/>
<path d="M202.84 171.24C205.32 170.08 209.48 171.66 208.96 173.94C208.44 176.22 206.26 178.09 203.56 176.74C200.86 175.39 201.83 171.72 202.84 171.24Z" fill="#FFC727"/>
<path opacity="0.1" d="M207.88 176C207.351 176.597 206.632 176.992 205.845 177.12C205.058 177.247 204.25 177.099 203.56 176.7C200.87 175.35 201.82 171.7 202.84 171.2C203.597 170.869 204.428 170.741 205.25 170.83C204.554 171.49 204.106 172.369 203.98 173.32C204 174.87 206 176.43 207.88 176Z" fill="#1A212D"/>
<path d="M216.47 244.72V249H201.47V227.7H216.18V232.02H206.39V236.16H214.8V240.16H206.39V244.69L216.47 244.72Z" fill="#475769"/>
<path d="M219.48 249V227.7H229.08C230.04 227.691 230.988 227.907 231.85 228.33C232.684 228.736 233.433 229.296 234.06 229.98C234.673 230.66 235.164 231.442 235.51 232.29C235.855 233.117 236.035 234.004 236.04 234.9C236.044 235.545 235.96 236.188 235.79 236.81C235.637 237.41 235.408 237.988 235.11 238.53C234.811 239.07 234.437 239.564 234 240C233.57 240.43 233.082 240.796 232.55 241.09L237.23 249.01H231.68L227.6 242.14H224.4V249H219.48ZM224.4 237.84H228.9C229.198 237.835 229.49 237.758 229.751 237.615C230.012 237.472 230.235 237.268 230.4 237.02C230.84 236.403 231.062 235.657 231.03 234.9C231.067 234.134 230.81 233.382 230.31 232.8C230.12 232.567 229.882 232.377 229.613 232.243C229.345 232.109 229.05 232.033 228.75 232.02H224.4V237.84Z" fill="#475769"/>
<path d="M239.58 249V227.7H249.17C250.133 227.691 251.085 227.907 251.95 228.33C252.784 228.736 253.533 229.296 254.16 229.98C254.773 230.66 255.264 231.442 255.61 232.29C255.952 233.118 256.129 234.004 256.13 234.9C256.13 235.544 256.053 236.185 255.9 236.81C255.734 237.407 255.503 237.984 255.21 238.53C254.913 239.065 254.543 239.557 254.11 239.99C253.68 240.42 253.192 240.786 252.66 241.08L257.33 249H251.79L247.71 242.13H244.5V249H239.58ZM244.5 237.84H249C249.298 237.835 249.59 237.758 249.851 237.615C250.112 237.472 250.335 237.268 250.5 237.02C250.936 236.401 251.157 235.656 251.13 234.9C251.167 234.134 250.91 233.382 250.41 232.8C250.219 232.566 249.98 232.375 249.709 232.241C249.438 232.107 249.142 232.031 248.84 232.02H244.5V237.84Z" fill="#475769"/>
<path d="M269 249.22C267.508 249.239 266.032 248.921 264.68 248.29C263.421 247.702 262.29 246.873 261.35 245.85C260.429 244.835 259.704 243.658 259.21 242.38C258.705 241.107 258.443 239.75 258.44 238.38C258.439 236.991 258.711 235.615 259.24 234.33C260.283 231.746 262.287 229.668 264.83 228.53C266.169 227.93 267.622 227.626 269.09 227.64C270.585 227.622 272.064 227.94 273.42 228.57C274.679 229.167 275.809 230.002 276.75 231.03C277.666 232.051 278.387 233.23 278.88 234.51C279.373 235.786 279.627 237.142 279.63 238.51C279.631 239.899 279.359 241.275 278.83 242.56C278.315 243.833 277.569 244.999 276.63 246C275.667 246.999 274.523 247.806 273.26 248.38C271.919 248.969 270.464 249.255 269 249.22V249.22ZM263.46 238.42C263.46 239.229 263.578 240.035 263.81 240.81C264.038 241.553 264.401 242.248 264.88 242.86C265.368 243.496 265.999 244.009 266.721 244.356C267.444 244.704 268.238 244.876 269.04 244.86C269.895 244.878 270.74 244.682 271.5 244.29C272.175 243.925 272.765 243.421 273.23 242.81C273.684 242.185 274.022 241.484 274.23 240.74C274.461 239.975 274.579 239.18 274.58 238.38C274.583 237.572 274.458 236.769 274.21 236C273.981 235.271 273.614 234.592 273.13 234C272.653 233.411 272.057 232.931 271.38 232.59C270.645 232.207 269.829 232.005 269 232C268.149 231.979 267.307 232.171 266.55 232.56C265.875 232.916 265.282 233.41 264.81 234.01C264.333 234.625 263.977 235.323 263.76 236.07C263.546 236.835 263.445 237.626 263.46 238.42Z" fill="#475769"/>
<path d="M282.47 249V227.7H292.07C293.033 227.691 293.985 227.907 294.85 228.33C295.681 228.737 296.427 229.296 297.05 229.98C297.67 230.657 298.164 231.439 298.51 232.29C298.852 233.118 299.029 234.004 299.03 234.9C299.032 235.544 298.951 236.186 298.79 236.81C298.633 237.41 298.401 237.988 298.1 238.53C297.515 239.609 296.629 240.495 295.55 241.08L300.23 249H294.68L290.6 242.13H287.39V249H282.47ZM287.39 237.84H291.89C292.188 237.835 292.48 237.758 292.741 237.615C293.002 237.472 293.225 237.268 293.39 237.02C293.83 236.403 294.052 235.657 294.02 234.9C294.057 234.134 293.8 233.382 293.3 232.8C293.111 232.566 292.873 232.376 292.604 232.241C292.335 232.107 292.041 232.031 291.74 232.02H287.39V237.84Z" fill="#475769"/>
<path d="M69.37 75.24C67.8784 75.2591 66.4016 74.9412 65.05 74.31C63.7908 73.7185 62.6595 72.8862 61.72 71.86C60.7996 70.8484 60.0741 69.6753 59.58 68.4C59.0747 67.1268 58.8135 65.7698 58.81 64.4C58.8159 63.0275 59.0876 61.6692 59.61 60.4C60.6481 57.8109 62.6529 55.7272 65.2 54.59C66.54 53.9932 67.9932 53.693 69.46 53.71C70.9516 53.6909 72.4283 54.0088 73.78 54.64C75.0332 55.2022 76.1644 56.0039 77.11 57C78.0289 58.0184 78.7511 59.1984 79.24 60.48C79.7366 61.7551 79.991 63.1116 79.99 64.48C79.9875 65.8519 79.7192 67.2102 79.2 68.48C78.1581 71.0624 76.1641 73.1459 73.63 74.3C72.2965 74.923 70.8419 75.244 69.37 75.24ZM63.82 64.44C63.8183 65.247 63.9397 66.0496 64.18 66.82C64.4083 67.5661 64.7709 68.2642 65.25 68.88C65.7211 69.4821 66.3184 69.9737 67 70.32C67.7449 70.6905 68.5682 70.8757 69.4 70.86C70.2549 70.8801 71.101 70.684 71.86 70.29C72.5408 69.9248 73.1344 69.4165 73.6 68.8C74.0537 68.1749 74.3923 67.4739 74.6 66.73C74.8478 65.9705 74.9826 65.1787 75 64.38C74.9942 63.572 74.8661 62.7696 74.62 62C74.3907 61.2706 74.0241 60.5918 73.54 60C73.0633 59.4112 72.4667 58.9306 71.79 58.59C71.0518 58.2056 70.2323 58.0033 69.4 58C68.5535 57.9771 67.7148 58.1662 66.96 58.55C66.2852 58.9067 65.6925 59.4006 65.22 60C64.7669 60.5997 64.4279 61.2777 64.22 62C63.9644 62.7885 63.8295 63.6112 63.82 64.44V64.44Z" fill="#475769"/>
<path d="M90 75.36C88.7746 75.3812 87.5573 75.1568 86.42 74.7C85.4195 74.293 84.5139 73.6836 83.76 72.91C83.0426 72.1617 82.4876 71.2731 82.13 70.3C81.3835 68.2973 81.3835 66.0927 82.13 64.09C82.4876 63.117 83.0426 62.2284 83.76 61.48C84.5159 60.7064 85.4208 60.094 86.42 59.68C88.7196 58.7864 91.2704 58.7864 93.57 59.68C94.5621 60.0964 95.46 60.7086 96.21 61.48C96.9302 62.23 97.4914 63.1178 97.86 64.09C98.2401 65.0827 98.4334 66.1371 98.43 67.2C98.4352 68.2581 98.2488 69.3083 97.88 70.3C97.5186 71.2735 96.9603 72.1621 96.24 72.91C95.4898 73.6833 94.5875 74.2928 93.59 74.7C92.4492 75.1568 91.2287 75.3812 90 75.36V75.36ZM86.44 67.2C86.3842 68.2902 86.7413 69.3614 87.44 70.2C87.7557 70.5658 88.1498 70.8555 88.5931 71.0477C89.0363 71.2399 89.5173 71.3296 90 71.31C90.4767 71.3151 90.9484 71.2125 91.38 71.01C91.8014 70.8101 92.1762 70.524 92.48 70.17C92.8038 69.7833 93.0514 69.3388 93.21 68.86C93.3942 68.3262 93.4855 67.7647 93.48 67.2C93.5329 66.1102 93.1762 65.0401 92.48 64.2C92.1747 63.8427 91.7939 63.5578 91.365 63.3658C90.936 63.1739 90.4698 63.0796 90 63.09C89.5254 63.0866 89.0558 63.1869 88.624 63.3838C88.1922 63.5807 87.8086 63.8695 87.5 64.23C87.1738 64.613 86.9227 65.054 86.76 65.53C86.5588 66.0643 86.4505 66.6292 86.44 67.2V67.2Z" fill="#475769"/>
<path d="M110.71 75.36C109.622 75.3877 108.546 75.129 107.59 74.61C106.736 74.1156 106.042 73.3868 105.59 72.51V81.45H100.79V59.31H104.96V61.86C105.506 60.994 106.254 60.2734 107.14 59.76C108.089 59.24 109.158 58.9812 110.24 59.01C111.251 58.9992 112.252 59.2144 113.17 59.64C114.049 60.0503 114.835 60.6355 115.48 61.36C116.143 62.1181 116.658 62.993 117 63.94C117.374 64.965 117.56 66.049 117.55 67.14C117.561 68.2506 117.389 69.3555 117.04 70.41C116.722 71.3539 116.234 72.2317 115.6 73C115.011 73.7231 114.274 74.3127 113.44 74.73C112.592 75.1525 111.657 75.3684 110.71 75.36V75.36ZM109.09 71.36C109.588 71.3639 110.08 71.2437 110.52 71.01C110.948 70.7816 111.329 70.4726 111.64 70.1C111.969 69.7043 112.221 69.2496 112.38 68.76C112.55 68.2438 112.634 67.7034 112.63 67.16C112.637 66.6106 112.542 66.0647 112.35 65.55C112.172 65.0816 111.907 64.6507 111.57 64.28C111.235 63.9166 110.826 63.6301 110.37 63.44C109.889 63.2381 109.372 63.136 108.85 63.14C108.174 63.1435 107.513 63.3451 106.95 63.72C106.344 64.1047 105.859 64.6523 105.55 65.3V68.54C105.861 69.3186 106.363 70.0063 107.01 70.54C107.589 71.0364 108.327 71.3095 109.09 71.31V71.36Z" fill="#475769"/>
<path d="M126.16 75.36C124.8 75.3616 123.449 75.1421 122.16 74.71C120.94 74.3282 119.815 73.6907 118.86 72.84L120.57 69.9C121.446 70.5138 122.389 71.027 123.38 71.43C124.209 71.7847 125.098 71.9781 126 72C126.502 72.0287 127.001 71.9143 127.44 71.67C127.609 71.5669 127.747 71.4188 127.837 71.2423C127.927 71.0657 127.966 70.8676 127.95 70.67C127.947 70.4604 127.885 70.2558 127.772 70.0792C127.659 69.9026 127.499 69.7609 127.31 69.67C126.588 69.3164 125.826 69.0511 125.04 68.88C123.98 68.58 123.04 68.29 122.36 68.01C121.725 67.7807 121.123 67.468 120.57 67.08C120.141 66.7836 119.796 66.3803 119.57 65.91C119.359 65.4175 119.257 64.8855 119.27 64.35C119.259 63.6109 119.415 62.8789 119.726 62.2087C120.038 61.5385 120.497 60.9475 121.07 60.48C121.666 60.0015 122.343 59.6356 123.07 59.4C123.876 59.1339 124.721 59.0022 125.57 59.01C126.695 59.0017 127.814 59.1635 128.89 59.49C130.002 59.8515 131.024 60.4445 131.89 61.23L130.03 64.11C129.281 63.5742 128.477 63.1215 127.63 62.76C126.996 62.4958 126.317 62.3534 125.63 62.34C125.17 62.3238 124.714 62.4308 124.31 62.65C124.137 62.7509 123.995 62.8976 123.899 63.0741C123.804 63.2505 123.759 63.4498 123.77 63.65C123.762 63.8558 123.813 64.0596 123.918 64.237C124.022 64.4144 124.176 64.5578 124.36 64.65C125.052 64.9751 125.781 65.2168 126.53 65.37C127.492 65.619 128.44 65.9195 129.37 66.27C130.037 66.5136 130.667 66.8502 131.24 67.27C131.69 67.6042 132.05 68.0438 132.29 68.55C132.522 69.0896 132.634 69.6729 132.62 70.26C132.648 70.9778 132.504 71.6919 132.199 72.3426C131.895 72.9932 131.439 73.5616 130.87 74C129.501 74.9768 127.839 75.4566 126.16 75.36V75.36Z" fill="#475769"/>
<path d="M134.89 75.06V70.17H138.82V75.06H134.89Z" fill="#475769"/>
<path d="M142.06 75.06V70.17H146V75.06H142.06Z" fill="#475769"/>
<path d="M149.23 75.06V70.17H153.16V75.06H149.23Z" fill="#475769"/>
<path d="M250.74 312.28C248.27 312.14 236.31 310.88 234.22 308.96C228.52 303.72 225.22 300.32 224.73 297.09C224.27 294.22 226.53 288.79 226.58 285.84C226.63 282.89 231.64 284.5 233.36 284.32C236.92 283.96 237.71 286.02 239.58 286.69C240.88 287.16 245.31 284.78 248.44 287.02C251.57 289.26 250.94 293.07 250.94 293.07C250.94 293.07 258.23 296.41 258.36 300.39C258.5 304.89 253.52 312.44 250.74 312.28Z" fill="#FFC727"/>
<path opacity="0.3" d="M250.74 312.28C248.27 312.14 236.31 310.88 234.22 308.96C228.52 303.72 225.22 300.32 224.73 297.09C224.27 294.22 226.53 288.79 226.58 285.84C226.63 282.89 231.64 284.5 233.36 284.32C236.92 283.96 237.71 286.02 239.58 286.69C240.88 287.16 245.31 284.78 248.44 287.02C251.57 289.26 250.94 293.07 250.94 293.07C250.94 293.07 258.23 296.41 258.36 300.39C258.5 304.89 253.52 312.44 250.74 312.28Z" fill="white"/>
<path d="M110.32 406.11C106.69 410.35 91.86 413.27 83.15 406.44C74.44 399.61 69.27 376.91 69.5 369.26C69.73 361.61 92.09 268 98.45 245.7C104.81 223.4 94.45 212.31 87.16 207.04C79.87 201.77 64.45 207.51 61.33 210.84C58.21 214.17 56.8 223 56.8 223C56.8 223 59.38 215 64.09 212.35C68.8 209.7 79.15 207.82 84.57 210.88C89.99 213.94 97.93 227.57 93.48 239.48C89.03 251.39 62 359.43 61.33 369.53C60.56 381.66 67.39 403.03 77.74 412.26C88.09 421.49 105.86 420.62 107.74 421.26C109.62 421.9 109.9 424.64 109.9 424.64L110.32 406.11Z" fill="#FFC727"/>
<path opacity="0.1" d="M110.32 406.11C106.69 410.35 91.86 413.27 83.15 406.44C74.44 399.61 69.27 376.91 69.5 369.26C69.73 361.61 92.09 268 98.45 245.7C104.81 223.4 94.45 212.31 87.16 207.04C79.87 201.77 64.45 207.51 61.33 210.84C58.21 214.17 56.8 223 56.8 223C56.8 223 59.38 215 64.09 212.35C68.8 209.7 79.15 207.82 84.57 210.88C89.99 213.94 97.93 227.57 93.48 239.48C89.03 251.39 62 359.43 61.33 369.53C60.56 381.66 67.39 403.03 77.74 412.26C88.09 421.49 105.86 420.62 107.74 421.26C109.62 421.9 109.9 424.64 109.9 424.64L110.32 406.11Z" fill="#1A212D"/>
<g opacity="0.2">
<path d="M104.82 410.46C104.244 413.917 104.144 417.436 104.52 420.92H104.12C103.875 419.228 103.775 417.519 103.82 415.81C103.866 413.998 104.074 412.195 104.44 410.42C104.52 410.05 104.6 409.68 104.69 409.31L105.06 409.19C105 409.59 104.89 410 104.82 410.46Z" fill="#1A212D"/>
<path d="M91.84 410.12L91.72 410.81C91.4242 412.577 91.2339 414.36 91.15 416.15C91.15 415.25 91.08 414.35 91.15 413.45C91.22 412.55 91.25 411.65 91.38 410.75L91.47 410.05L91.84 410.12Z" fill="#1A212D"/>
<path d="M93.85 419.58C93.85 419.77 93.85 419.95 93.85 420.14C93.85 419.95 93.79 419.76 93.77 419.57C93.66 418.87 93.56 418.17 93.5 417.46C93.5 416.56 93.38 415.66 93.41 414.75C93.4156 413.289 93.536 411.832 93.77 410.39H94.26C94.008 411.825 93.851 413.275 93.79 414.73C93.7135 416.346 93.7335 417.966 93.85 419.58Z" fill="#1A212D"/>
<path d="M97.74 417.54C97.74 418.447 97.74 419.357 97.74 420.27L97.28 420.2C97.28 419.3 97.28 418.41 97.28 417.52C97.3633 415.717 97.6655 413.93 98.18 412.2C97.8843 413.965 97.7372 415.751 97.74 417.54V417.54Z" fill="#1A212D"/>
<path d="M87.7 409C87.52 409.84 87.36 410.69 87.25 411.54C86.9835 413.308 86.8465 415.092 86.84 416.88C86.84 417.12 86.84 417.35 86.84 417.59L86.49 417.46C86.49 417.27 86.49 417.07 86.49 416.88C86.4297 415.071 86.5301 413.261 86.79 411.47C86.918 410.582 87.0916 409.7 87.31 408.83L87.7 409Z" fill="#1A212D"/>
<path d="M77.57 399.29C77.4434 399.55 77.3234 399.81 77.21 400.07C75.9451 402.853 75.0153 405.777 74.44 408.78L74.3 408.61C74.3 408.28 74.38 407.95 74.43 407.61C74.59 406.73 74.73 405.83 74.97 404.96C75.4175 403.206 76.013 401.493 76.75 399.84C76.92 399.47 77.1 399.1 77.28 398.74L77.57 399.29Z" fill="#1A212D"/>
<path d="M79 401.73C78.69 402.5 78.42 403.28 78.18 404.07C77.6569 405.768 77.2624 407.503 77 409.26C76.88 409.92 76.78 410.57 76.71 411.26C76.6182 411.172 76.5314 411.078 76.45 410.98C76.4765 410.394 76.5332 409.81 76.62 409.23C76.8552 407.433 77.2467 405.659 77.79 403.93C78.08 403.03 78.4 402.14 78.79 401.27C78.82 401.41 78.92 401.57 79 401.73Z" fill="#1A212D"/>
<path d="M81.67 407.24C81.139 408.954 80.7543 410.711 80.52 412.49C80.44 413.08 80.37 413.67 80.32 414.26L79.9 414C79.96 413.49 80.04 413 80.14 412.46C80.4396 410.665 80.9533 408.913 81.67 407.24V407.24Z" fill="#1A212D"/>
<path d="M75.73 395.53C75.0818 396.407 74.4809 397.319 73.93 398.26C73.0102 399.791 72.1788 401.374 71.44 403C71.74 402.16 72.03 401.3 72.44 400.47C72.85 399.64 73.19 398.83 73.64 398.05C74.2069 397.005 74.8486 396.002 75.56 395.05C75.58 395.2 75.65 395.37 75.73 395.53Z" fill="#1A212D"/>
<path d="M71.11 381.27C70.74 381.6 70.37 381.93 70.01 382.27C68.7085 383.5 67.4734 384.799 66.31 386.16C66.84 385.44 67.31 384.69 67.93 384C68.55 383.31 69.1 382.62 69.75 382C70.15 381.58 70.57 381.18 71 380.81C71 381 71.08 381.11 71.11 381.27Z" fill="#1A212D"/>
<path d="M71.78 384C70.8897 384.849 70.0515 385.75 69.27 386.7C68.1159 388.071 67.0409 389.507 66.05 391C66.49 390.21 66.91 389.41 67.4 388.66C67.89 387.91 68.4 387.15 68.97 386.45C69.7838 385.385 70.6763 384.382 71.64 383.45C71.69 383.64 71.73 383.82 71.78 384Z" fill="#1A212D"/>
<path d="M73.11 388.55C72.26 389.408 71.4587 390.313 70.71 391.26C69.5967 392.65 68.5937 394.124 67.71 395.67C67.54 395.95 67.38 396.23 67.22 396.51L66.98 395.95C67.07 395.77 67.18 395.59 67.28 395.41C68.1937 393.852 69.241 392.377 70.41 391C71.2237 390.053 72.1061 389.167 73.05 388.35L73.11 388.55Z" fill="#1A212D"/>
<path d="M69.84 374.32C68.1073 374.389 66.3823 374.59 64.68 374.92C63.61 375.11 62.54 375.34 61.49 375.63C61.49 375.48 61.49 375.33 61.49 375.18C62.49 374.88 63.57 374.64 64.63 374.43C66.345 374.109 68.0852 373.941 69.83 373.93C69.81 374.06 69.82 374.19 69.84 374.32Z" fill="#1A212D"/>
<path d="M70.86 361.12C70.86 361.28 70.79 361.44 70.76 361.6C69.491 361.53 68.219 361.53 66.95 361.6C65.5034 361.648 64.0609 361.782 62.63 362C62.6253 361.963 62.6253 361.927 62.63 361.89C63.16 361.76 63.68 361.64 64.22 361.55C65.11 361.42 66.01 361.27 66.91 361.21C68.223 361.089 69.5428 361.059 70.86 361.12V361.12Z" fill="#1A212D"/>
<path d="M70.4 363.47L70.31 363.94C69.82 363.94 69.31 363.94 68.84 363.94C67.0538 363.965 65.2719 364.125 63.51 364.42C63.03 364.49 62.56 364.57 62.09 364.66C62.09 364.55 62.09 364.44 62.16 364.33C62.58 364.22 63.01 364.12 63.44 364.04C65.216 363.685 67.0194 363.484 68.83 363.44C69.35 363.44 69.88 363.45 70.4 363.47Z" fill="#1A212D"/>
<path d="M66.94 368.25C65.1502 368.3 63.3675 368.498 61.61 368.84L61.39 368.89C61.39 368.77 61.39 368.63 61.39 368.49H61.49C63.2905 368.191 65.1203 368.111 66.94 368.25V368.25Z" fill="#1A212D"/>
<path d="M71.68 357.12C71.68 357.24 71.63 357.35 71.61 357.46C71.3 357.46 70.98 357.39 70.67 357.37C68.889 357.24 67.101 357.24 65.32 357.37C64.73 357.37 64.15 357.45 63.56 357.52C63.56 357.35 63.64 357.19 63.67 357.03C64.21 356.97 64.75 356.92 65.29 356.88C67.0973 356.767 68.911 356.813 70.71 357.02L71.68 357.12Z" fill="#1A212D"/>
<path d="M74.39 344.62C74.39 344.78 74.32 344.95 74.28 345.11C72.5977 344.734 70.8896 344.483 69.17 344.36C68.3 344.28 67.42 344.24 66.55 344.24L66.61 343.99C67.47 343.99 68.33 343.92 69.2 343.99C70.9446 344.054 72.6807 344.265 74.39 344.62V344.62Z" fill="#1A212D"/>
<path d="M73.88 346.93C73.88 347.08 73.81 347.23 73.78 347.37C72.7881 347.179 71.7867 347.043 70.78 346.96C69.1864 346.785 67.5823 346.725 65.98 346.78C65.98 346.64 66.05 346.5 66.08 346.36C67.6637 346.278 69.2512 346.312 70.83 346.46C71.8543 346.563 72.8724 346.72 73.88 346.93V346.93Z" fill="#1A212D"/>
<path d="M68.36 351C67.2533 350.895 66.1414 350.855 65.03 350.88C65.0486 350.786 65.072 350.692 65.1 350.6C66.1959 350.643 67.2863 350.776 68.36 351V351Z" fill="#1A212D"/>
<path d="M77.38 331.42C77.38 331.54 77.38 331.65 77.3 331.77C75.68 331.44 74.03 331.27 72.38 331.09C73.28 331.09 74.18 331.09 75.08 331.16C75.98 331.23 76.62 331.29 77.38 331.42Z" fill="#1A212D"/>
<path d="M76.85 333.73C76.85 333.89 76.78 334.04 76.74 334.19C75.74 334.01 74.74 333.89 73.67 333.81C72.1274 333.673 70.5781 333.626 69.03 333.67C69.0345 333.644 69.0345 333.616 69.03 333.59C69.67 333.52 70.32 333.45 70.97 333.42C71.87 333.42 72.77 333.36 73.68 333.42C74.7418 333.462 75.8002 333.566 76.85 333.73V333.73Z" fill="#1A212D"/>
<path d="M76.08 338.34L75.81 338.28C74.1632 337.931 72.4913 337.714 70.81 337.63C69.93 337.63 69.05 337.56 68.16 337.57C68.16 337.42 68.23 337.27 68.27 337.12C69.13 337.12 69.99 337.17 70.84 337.25C72.5385 337.398 74.2153 337.733 75.84 338.25L76.08 338.34Z" fill="#1A212D"/>
<path d="M78.38 327.11C78.38 327.27 78.3 327.43 78.27 327.58C77.89 327.49 77.51 327.42 77.13 327.36C75.3771 327.03 73.6023 326.83 71.82 326.76C71.45 326.76 71.07 326.76 70.7 326.76C70.7 326.65 70.7 326.53 70.78 326.42H71.78C73.5874 326.428 75.3908 326.592 77.17 326.91C77.61 326.94 78 327 78.38 327.11Z" fill="#1A212D"/>
<path d="M82.21 310.74C82.21 310.84 82.21 310.94 82.14 311.04C80.92 310.82 79.67 310.67 78.43 310.52C79.3 310.52 80.17 310.52 81.05 310.61L82.21 310.74Z" fill="#1A212D"/>
<path d="M80.75 316.93C80.75 317.07 80.68 317.21 80.65 317.34L79.76 317.15C78.0064 316.789 76.2335 316.528 74.45 316.37C75.34 316.37 76.25 316.37 77.15 316.44C78.05 316.51 78.95 316.6 79.83 316.77L80.75 316.93Z" fill="#1A212D"/>
<path d="M85 298.93C85 299.09 84.92 299.24 84.89 299.39C83.5526 298.955 82.1901 298.601 80.81 298.33C79.81 298.11 78.81 297.95 77.81 297.83L77.87 297.61H78.22C79.12 297.7 80.02 297.77 80.91 297.93C82.2967 298.159 83.664 298.493 85 298.93V298.93Z" fill="#1A212D"/>
<path d="M83.94 303.44C83.94 303.59 83.87 303.74 83.83 303.89C83.13 303.68 82.41 303.5 81.69 303.35C80.0245 302.964 78.3335 302.696 76.63 302.55L76.72 302.16C78.43 302.257 80.129 302.494 81.8 302.87C82.52 303 83.23 303.22 83.94 303.44Z" fill="#1A212D"/>
<path d="M88 281.19C86.319 280.572 84.5898 280.093 82.83 279.76L82.4 279.68C82.4 279.55 82.47 279.42 82.5 279.29L82.91 279.38C84.6705 279.786 86.3784 280.393 88 281.19V281.19Z" fill="#1A212D"/>
<path d="M86 295L85.91 295.35L85.47 295.2C83.7756 294.63 82.0407 294.189 80.28 293.88C79.82 293.79 79.35 293.71 78.88 293.65L79 293.19L80.37 293.39C82.153 293.717 83.9033 294.202 85.6 294.84L86 295Z" fill="#1A212D"/>
<path d="M99.48 241.47C99.4841 241.513 99.4841 241.557 99.48 241.6C98.215 240.994 96.9123 240.469 95.58 240.03C94.9 239.8 94.2 239.59 93.51 239.4C93.5689 239.26 93.619 239.116 93.66 238.97C94.35 239.18 95.04 239.41 95.66 239.67C96.9813 240.162 98.2591 240.764 99.48 241.47V241.47Z" fill="#1A212D"/>
<path d="M97.12 245.11C95.4955 244.489 93.8234 244.001 92.12 243.65V243.65C92.12 243.53 92.2 243.42 92.23 243.3C93.9233 243.716 95.5639 244.323 97.12 245.11V245.11Z" fill="#1A212D"/>
<path d="M97.67 219.43C96.32 219.62 94.97 219.9 93.67 220.18C94.53 219.92 95.39 219.63 96.27 219.42L97.58 219.13C97.58 219.23 97.63 219.33 97.67 219.43Z" fill="#1A212D"/>
<path d="M98.71 222C98.13 222 97.55 222.09 96.98 222.16C95.6701 222.294 94.3683 222.498 93.08 222.77C93.0841 222.727 93.0841 222.683 93.08 222.64C93.49 222.51 93.91 222.39 94.32 222.29C95.2 222.1 96.08 221.89 96.98 221.78C97.52 221.69 98.07 221.62 98.61 221.58C98.6519 221.718 98.6853 221.858 98.71 222V222Z" fill="#1A212D"/>
<path d="M100.38 234.43C100.38 234.53 100.38 234.63 100.38 234.74C99.15 234.45 97.9 234.23 96.65 234.01C97.54 234.08 98.45 234.13 99.34 234.26L100.38 234.43Z" fill="#1A212D"/>
<path d="M98.11 226.55C96.8148 226.565 95.522 226.665 94.24 226.85C94.24 226.74 94.24 226.65 94.17 226.55C95.4804 226.425 96.7997 226.425 98.11 226.55V226.55Z" fill="#1A212D"/>
<path d="M94.2 213.73C93.2 214.2 92.26 214.73 91.34 215.28C90.81 215.58 90.34 215.9 89.8 216.28L89.64 216.04C90.13 215.67 90.64 215.31 91.14 214.99C92.0244 214.4 92.9463 213.869 93.9 213.4L94.2 213.73Z" fill="#1A212D"/>
<path d="M88.84 209.82C87.9149 210.494 87.0301 211.222 86.19 212L85.97 211.81C86.8682 211.066 87.8283 210.4 88.84 209.82V209.82Z" fill="#1A212D"/>
<path d="M77.58 205C77.01 206.07 76.51 207.16 76.05 208.27C75.9 208.63 75.76 208.99 75.62 209.36H75.14C75.32 208.93 75.5 208.51 75.69 208.09C76.1798 207.025 76.7376 205.993 77.36 205H77.58Z" fill="#1A212D"/>
<path d="M73.75 206.31C73.1948 207.404 72.7105 208.533 72.3 209.69L71.95 209.75C72.4416 208.55 73.0442 207.398 73.75 206.31V206.31Z" fill="#1A212D"/>
<path d="M70.13 206.4C70.03 207.4 69.97 208.4 69.91 209.47C69.91 208.57 69.82 207.67 69.85 206.77C69.85 206.67 69.85 206.58 69.85 206.48L70.13 206.4Z" fill="#1A212D"/>
<path d="M67.38 210.91L67 211C66.8414 209.873 66.7479 208.738 66.72 207.6L67.2 207.4C67.1934 208.572 67.2535 209.744 67.38 210.91V210.91Z" fill="#1A212D"/>
<path d="M64.93 209.45C64.85 210.28 64.81 211.12 64.81 211.95L64.56 212.07C64.623 211.189 64.7466 210.314 64.93 209.45V209.45Z" fill="#1A212D"/>
<path d="M88.21 207.83C87.1691 208.535 86.1676 209.296 85.21 210.11L84.43 210.79C84.2986 210.71 84.1616 210.64 84.02 210.58C84.33 210.32 84.64 210.06 84.96 209.81C85.9372 209.043 86.9663 208.345 88.04 207.72L88.21 207.83Z" fill="#1A212D"/>
<path d="M92.54 211.78C91.54 212.42 90.63 213.12 89.68 213.78C90.35 213.19 91.01 212.57 91.68 212.01L92.3 211.54L92.54 211.78Z" fill="#1A212D"/>
<path d="M88.48 284.7L88.36 285.18L88.06 285.07C86.3793 284.456 84.6543 283.972 82.9 283.62C82.43 283.51 81.96 283.42 81.48 283.34C81.48 283.24 81.48 283.15 81.55 283.05C82.03 283.1 82.55 283.16 82.98 283.25C84.763 283.545 86.5164 283.997 88.22 284.6L88.48 284.7Z" fill="#1A212D"/>
<path d="M91.39 272.91C91.3854 272.98 91.3854 273.05 91.39 273.12L89.17 272.48C89.87 272.62 90.63 272.74 91.39 272.91Z" fill="#1A212D"/>
<path d="M90.27 277.39L90.18 277.8L89.18 277.52C87.4427 277.092 85.6834 276.758 83.91 276.52C84.8 276.58 85.71 276.62 86.6 276.73C87.49 276.84 88.39 276.98 89.27 277.2C89.58 277.22 89.93 277.3 90.27 277.39Z" fill="#1A212D"/>
<path d="M96.05 254.58L95.93 255.03C95.37 254.87 94.81 254.73 94.25 254.61C92.6062 254.212 90.9348 253.938 89.25 253.79C89.25 253.65 89.32 253.52 89.36 253.39C91.0431 253.504 92.7147 253.748 94.36 254.12C94.93 254.26 95.49 254.41 96.05 254.58Z" fill="#1A212D"/>
<path d="M92.5 268.46L92.38 268.92C91.3684 268.598 90.3403 268.331 89.3 268.12C88.073 267.837 86.831 267.624 85.58 267.48C85.5845 267.43 85.5845 267.38 85.58 267.33C85.94 267.33 86.29 267.33 86.65 267.38C87.54 267.48 88.44 267.56 89.33 267.74C90.4008 267.913 91.4595 268.154 92.5 268.46V268.46Z" fill="#1A212D"/>
<path d="M95 258.58C95.003 258.623 95.003 258.667 95 258.71L93.68 258.32L95 258.58Z" fill="#1A212D"/>
<path d="M96.14 248.55C94.4918 247.979 92.7994 247.544 91.08 247.25C91.08 247.13 91.14 247.01 91.18 246.89C92.8916 247.251 94.5559 247.808 96.14 248.55V248.55Z" fill="#1A212D"/>
<path d="M79.76 321.14C79.7493 321.208 79.7325 321.275 79.71 321.34C78.6277 321.033 77.5294 320.786 76.42 320.6C75.0605 320.352 73.6885 320.178 72.31 320.08C72.31 319.93 72.38 319.77 72.42 319.62C73.789 319.725 75.149 319.925 76.49 320.22C77.5982 320.458 78.6904 320.765 79.76 321.14V321.14Z" fill="#1A212D"/>
</g>
<path d="M145 449C147.894 448.604 150.826 448.564 153.73 448.88C157.001 449.179 160.193 450.052 163.16 451.46C164.03 451.88 164.79 450.59 163.92 450.17C157.89 447.375 151.157 446.462 144.6 447.55C143.65 447.7 144.06 449.15 145 449V449Z" fill="#232E38"/>
<path d="M142.13 449.33C145.283 449.637 148.317 450.693 150.98 452.41C153.815 454.091 156.3 456.301 158.3 458.92C158.85 459.7 160.15 458.92 159.59 458.16C157.465 455.324 154.792 452.944 151.73 451.16C148.84 449.309 145.548 448.18 142.13 447.87C141.13 447.82 141.13 449.32 142.13 449.37V449.33Z" fill="#232E38"/>
<path d="M208.4 433C211.291 432.604 214.219 432.564 217.12 432.88C220.393 433.185 223.587 434.058 226.56 435.46C227.42 435.88 228.18 434.59 227.31 434.17C221.279 431.39 214.551 430.488 208 431.58C207.05 431.74 207.45 433.18 208.4 433.03V433Z" fill="#232E38"/>
<path d="M205.48 433.32C208.635 433.626 211.67 434.686 214.33 436.41C217.166 438.084 219.652 440.292 221.65 442.91C222.2 443.69 223.5 442.91 222.94 442.15C220.812 439.317 218.14 436.937 215.08 435.15C212.188 433.303 208.897 432.175 205.48 431.86C204.48 431.81 204.48 433.31 205.48 433.36V433.32Z" fill="#232E38"/>
<path d="M167.75 247.91C167.75 247.91 144.39 247.47 127.57 233.72C113.66 222.33 108.57 216.72 105.51 219.52C102.45 222.32 106.94 268.22 143.51 278.52C155.96 282.01 167.75 259.52 167.75 259.52V247.91Z" fill="#FFC727"/>
<path opacity="0.1" d="M167.75 247.91C167.75 247.91 144.39 247.47 127.57 233.72C113.66 222.33 108.57 216.72 105.51 219.52C102.45 222.32 106.94 268.22 143.51 278.52C155.96 282.01 167.75 259.52 167.75 259.52V247.91Z" fill="#1A212D"/>
<path opacity="0.1" d="M167.75 247.91V259.49C167.75 259.49 156 282 143.51 278.49C134.449 275.962 126.338 270.809 120.2 263.68C128.94 257.97 142.11 249.41 149.51 244.81C155.444 246.568 161.568 247.609 167.75 247.91Z" fill="#1A212D"/>
<path d="M141.34 327.14C141.34 327.14 127.08 300.32 128.06 287.22C129.04 274.12 143 252 154.6 246.44C166.2 240.88 220.27 248.82 238.13 267.24C242 271.24 238.32 278.29 236.33 281.9C233.75 286.57 224.73 297.09 216.91 300.14C216.91 300.14 218.31 315.55 201.91 323.91C201.91 323.91 207.48 350.11 212.56 364.36C217.64 378.61 229.92 402.36 222.38 419.56C214.84 436.76 195.87 435.45 183.38 437.25C170.89 439.05 150 451.17 131.5 448.55C113 445.93 105.65 425.39 110.86 403C116.6 378.45 126.27 348.6 141.34 327.14Z" fill="#FFC727"/>
<path d="M145.11 270.19C145.11 270.19 138.11 269.53 124.58 264.07C111.05 258.61 88.68 244.23 66.93 255.77C41.81 269.09 33.42 329.48 81.34 348.15C122.68 364.25 152.1 303.15 152.1 303.15L145.11 270.19Z" fill="#FFC727"/>
<path opacity="0.1" d="M152.09 303.17C152.09 303.17 122.68 364.25 81.34 348.17C70.54 343.97 62.6 337.64 57.07 330.17C52.0215 321.569 48.976 311.94 48.16 302C47.33 290.15 49.16 273 64.53 263.51C79.9 254.02 99.58 263 115 271.33C130.42 279.66 144.16 280.33 147.65 282.07C155.23 289.52 152.09 303.17 152.09 303.17Z" fill="#1A212D"/>
<path d="M115 259.78L122.44 262.7C124.93 263.65 127.44 264.63 129.9 265.54C132.36 266.45 134.9 267.35 137.42 268.16C138.68 268.59 139.96 268.94 141.24 269.29C141.88 269.45 142.52 269.63 143.17 269.78C143.82 269.93 144.47 270.04 145.17 270.19C142.491 270.046 139.836 269.614 137.25 268.9C134.654 268.236 132.097 267.428 129.59 266.48C127.08 265.54 124.59 264.48 122.18 263.4C119.77 262.32 117.29 261.11 115 259.78Z" fill="#232E38"/>
<path d="M138 325.05L139.8 322.32L141.62 319.62L145.23 314.21C146.43 312.4 147.59 310.58 148.76 308.75C149.33 307.83 149.92 306.92 150.45 305.97C150.98 305.02 151.54 304.1 152.12 303.16C151.37 305.223 150.471 307.228 149.43 309.16C148.43 311.09 147.25 312.95 146.06 314.78C144.87 316.61 143.59 318.38 142.24 320.09C140.913 321.815 139.498 323.471 138 325.05V325.05Z" fill="#232E38"/>
<path d="M139.05 269C139.408 268.759 139.803 268.58 140.22 268.47C141.457 268.096 142.78 268.124 144 268.55C143.57 268.6 143.16 268.6 142.75 268.64L141.52 268.73C140.7 268.75 139.9 268.85 139.05 269Z" fill="#232E38"/>
<path d="M149.06 309C149.627 308.317 150.242 307.676 150.9 307.08C151.54 306.48 152.15 305.93 152.81 305.27C152.623 306.189 152.129 307.018 151.41 307.62C150.75 308.263 149.943 308.737 149.06 309Z" fill="#232E38"/>
<path d="M149.06 291.42L141.84 291.16C139.43 291.08 137.02 291 134.62 290.97C129.81 290.9 124.99 290.82 120.21 291.18C115.43 291.54 110.93 293.23 106.54 295.11C104.34 296.05 102.18 297.11 100.06 298.24C97.94 299.37 95.82 300.53 93.75 301.76C97.6845 298.951 101.857 296.492 106.22 294.41C110.58 292.206 115.29 290.778 120.14 290.19C124.97 289.935 129.81 289.935 134.64 290.19C139.46 290.45 144.27 290.83 149.06 291.42Z" fill="#232E38"/>
<path d="M145.11 293.17C142.17 293.74 139.24 294.32 136.33 294.97C133.42 295.62 130.53 296.34 127.71 297.25C126.306 297.691 124.933 298.226 123.6 298.85C122.277 299.491 121.003 300.229 119.79 301.06C118.567 301.896 117.41 302.826 116.33 303.84C115.244 304.845 114.241 305.935 113.33 307.1C114.905 304.531 116.939 302.274 119.33 300.44C120.537 299.512 121.826 298.696 123.18 298C124.545 297.336 125.955 296.768 127.4 296.3C130.274 295.4 133.208 294.705 136.18 294.22C139.134 293.7 142.116 293.35 145.11 293.17Z" fill="#232E38"/>
<path d="M225.21 306.55C224.988 302.166 226.245 297.834 228.78 294.25C229.36 293.47 228.05 292.72 227.49 293.49C226.096 295.423 225.079 297.601 224.49 299.91C223.906 302.073 223.643 304.31 223.71 306.55C223.77 307.55 225.27 307.55 225.21 306.55Z" fill="#232E38"/>
<path d="M226.43 307.6C226.942 305.519 227.974 303.603 229.43 302.03C231.091 300.107 233.134 298.55 235.43 297.46C236.3 297.06 235.54 295.77 234.67 296.16C233.955 296.506 233.267 296.903 232.61 297.35C231 298.406 229.54 299.674 228.27 301.12C226.69 302.842 225.565 304.932 225 307.2C224.82 308.15 226.26 308.55 226.44 307.6H226.43Z" fill="#232E38"/>
<path d="M227 308.89C227.905 307.295 229.19 305.949 230.74 304.97C232.672 303.576 234.97 302.776 237.35 302.67C237.549 302.67 237.74 302.591 237.88 302.45C238.021 302.31 238.1 302.119 238.1 301.92C238.1 301.721 238.021 301.53 237.88 301.39C237.74 301.249 237.549 301.17 237.35 301.17C234.703 301.272 232.143 302.14 229.98 303.67C228.212 304.787 226.743 306.318 225.7 308.13C225.27 308.99 226.56 309.75 227 308.89V308.89Z" fill="#232E38"/>
<path d="M180.93 331.48C180.93 331.48 206.44 335.71 223.4 306.04C223.4 306.04 227.07 303.94 227.96 307.94C227.96 307.94 229.89 337.21 212.59 350.39C195.03 363.76 174.51 359.64 174.51 359.64C174.51 359.64 161.51 341.9 180.93 331.48Z" fill="#FFC727"/>
<path d="M202.48 327.14C200.227 328.893 197.631 330.153 194.86 330.84C193.485 331.199 192.084 331.45 190.67 331.59C189.256 331.72 187.834 331.72 186.42 331.59L190.55 330.79C191.91 330.52 193.26 330.19 194.55 329.84C195.84 329.49 197.21 329.08 198.55 328.64C199.89 328.2 201.19 327.73 202.48 327.14Z" fill="#232E38"/>
<path d="M174.51 359.64C176.168 359.857 177.838 359.981 179.51 360.01C181.177 360.05 182.843 360.02 184.51 359.92C187.834 359.718 191.133 359.223 194.37 358.44C197.609 357.68 200.767 356.608 203.8 355.24C206.851 353.866 209.784 352.244 212.57 350.39C211.91 350.91 211.25 351.39 210.57 351.94C209.931 352.47 209.263 352.964 208.57 353.42L206.41 354.75C205.7 355.21 204.91 355.54 204.17 355.94C202.659 356.702 201.103 357.37 199.51 357.94C198.72 358.24 197.9 358.45 197.09 358.71L195.88 359.09L194.64 359.38C191.345 360.181 187.97 360.607 184.58 360.65C181.194 360.757 177.808 360.418 174.51 359.64V359.64Z" fill="#232E38"/>
<path d="M177 361.19C177.482 361.178 177.963 361.134 178.44 361.06C178.92 360.99 179.44 360.94 179.85 360.86C180.79 360.73 181.69 360.57 182.68 360.34C181.952 361.046 181.009 361.49 180 361.6C179.498 361.66 178.992 361.66 178.49 361.6C177.967 361.59 177.454 361.449 177 361.19V361.19Z" fill="#232E38"/>
<path d="M196.28 283.27C196.11 283.16 196.13 283.72 196.28 283.86C200.15 287.32 203.9 291.92 201.39 296.41C201.367 296.443 201.359 296.484 201.366 296.523C201.374 296.563 201.397 296.597 201.43 296.62C201.463 296.643 201.504 296.651 201.543 296.643C201.583 296.636 201.617 296.613 201.64 296.58C205.63 292 200.59 285.94 196.28 283.27Z" fill="#232E38"/>
<path d="M189.48 283.44C182.53 289.26 193.03 300.77 199.48 295.37C205.93 289.97 195.31 278.56 189.48 283.44Z" fill="#232E38"/>
<path d="M174.39 289.42C173.489 288.153 172.872 286.707 172.58 285.18C172.253 283.629 172.226 282.031 172.5 280.47C172.782 278.882 173.445 277.386 174.43 276.11C175.384 274.855 176.659 273.881 178.12 273.29C177.22 274.435 176.427 275.66 175.75 276.95C175.132 278.176 174.701 279.487 174.47 280.84C174.229 282.217 174.116 283.613 174.13 285.01C174.15 286.44 174.24 287.89 174.39 289.42Z" fill="#232E38"/>
<path d="M173.64 289.52C172.5 288.463 171.6 287.174 171 285.74C170.358 284.292 170.002 282.733 169.95 281.15C169.898 279.535 170.241 277.932 170.95 276.48C171.615 275.058 172.651 273.842 173.95 272.96C173.305 274.254 172.786 275.607 172.4 277C172.051 278.327 171.9 279.699 171.95 281.07C171.994 282.467 172.172 283.857 172.48 285.22C172.79 286.65 173.19 288.05 173.64 289.52Z" fill="#232E38"/>
<path opacity="0.5" d="M213.41 430.37C204.41 436.26 192.28 435.97 183.41 437.25C174.54 438.53 161.6 444.93 148.18 447.66C147.98 436.85 148.98 413.66 159.18 391.66C172.4 363.16 191.18 354.37 197.29 377.11C202 394.69 202.53 410.47 213.41 430.37Z" fill="white"/>
<path d="M201.93 323.91C199.138 325.157 196.175 325.98 193.14 326.35C190.09 326.75 186.998 326.71 183.96 326.23C182.44 325.996 180.936 325.662 179.46 325.23C178 324.75 176.579 324.158 175.21 323.46C174.524 323.134 173.856 322.77 173.21 322.37L171.29 321.11C170.656 320.682 170.054 320.207 169.49 319.69C168.91 319.2 168.34 318.69 167.77 318.2C170.19 319.998 172.799 321.527 175.55 322.76C176.918 323.37 178.325 323.891 179.76 324.32C181.195 324.728 182.654 325.042 184.13 325.26C187.089 325.727 190.093 325.844 193.08 325.61L195.32 325.37C196.06 325.25 196.81 325.15 197.55 325C199.032 324.729 200.494 324.365 201.93 323.91Z" fill="#232E38"/>
<path d="M239.71 273.32C239.71 273.32 229.81 273.95 229.81 270.96C229.81 269.58 237.37 264.96 240.1 264.96C242.83 264.96 239.71 273.32 239.71 273.32Z" fill="#232E38"/>
<path d="M193.55 312.28C197.504 312.28 200.71 309.074 200.71 305.12C200.71 301.166 197.504 297.96 193.55 297.96C189.596 297.96 186.39 301.166 186.39 305.12C186.39 309.074 189.596 312.28 193.55 312.28Z" fill="#FF9BBC"/>
<path d="M255.56 435.53C255.56 434.13 258.16 432.37 258.88 431.93C259.6 431.49 262.88 431.27 263.1 430.71C263.32 430.15 266.48 429.49 267.64 429.55C268.8 429.61 270.36 431.65 270.58 433.26C270.688 434.04 270.512 434.833 270.085 435.493C269.657 436.154 269.006 436.639 268.25 436.86C266.81 437.14 264.18 438.47 263.08 438.58C261.98 438.69 255.56 437.09 255.56 435.53Z" fill="#FFC727"/>
<path opacity="0.3" d="M255.56 435.53C255.56 434.13 258.16 432.37 258.88 431.93C259.6 431.49 262.88 431.27 263.1 430.71C263.32 430.15 266.48 429.49 267.64 429.55C268.8 429.61 270.36 431.65 270.58 433.26C270.688 434.04 270.512 434.833 270.085 435.493C269.657 436.154 269.006 436.639 268.25 436.86C266.81 437.14 264.18 438.47 263.08 438.58C261.98 438.69 255.56 437.09 255.56 435.53Z" fill="white"/>
<path d="M244.32 430.74C243.6 429.74 245.23 428.97 246.04 427.8C246.85 426.63 249.57 427.1 250.09 427.47C250.768 428.418 251.074 429.581 250.95 430.74C250.187 431.825 249.033 432.571 247.73 432.82C246.82 432.82 244.77 431.34 244.32 430.74Z" fill="#FFC727"/>
<path opacity="0.3" d="M244.32 430.74C243.6 429.74 245.23 428.97 246.04 427.8C246.85 426.63 249.57 427.1 250.09 427.47C250.768 428.418 251.074 429.581 250.95 430.74C250.187 431.825 249.033 432.571 247.73 432.82C246.82 432.82 244.77 431.34 244.32 430.74Z" fill="white"/>
<path d="M257.1 428.8C257.29 427.21 260.39 427.67 260.88 428.53C261.37 429.39 259.58 431.07 258.77 430.37C257.96 429.67 257 429.39 257.1 428.8Z" fill="#FFC727"/>
<path opacity="0.3" d="M257.1 428.8C257.29 427.21 260.39 427.67 260.88 428.53C261.37 429.39 259.58 431.07 258.77 430.37C257.96 429.67 257 429.39 257.1 428.8Z" fill="white"/>
<path d="M246 438.11C246.5 437.49 248 437.35 248.23 437.71C248.46 438.07 248.95 438.79 248.59 439.08C248.23 439.37 247.22 440.02 246.76 439.66C246.3 439.3 245.76 438.44 246 438.11Z" fill="#FFC727"/>
<path opacity="0.3" d="M246 438.11C246.5 437.49 248 437.35 248.23 437.71C248.46 438.07 248.95 438.79 248.59 439.08C248.23 439.37 247.22 440.02 246.76 439.66C246.3 439.3 245.76 438.44 246 438.11Z" fill="white"/>
<path d="M235.85 433.23C236.14 432.23 237.58 431.57 238.5 431.46C239.42 431.35 241.13 432.11 241.03 432.76C240.93 433.41 239.63 433.98 239.41 434.45C239.19 434.92 238.51 435.93 237.83 435.66C237.15 435.39 235.52 434.34 235.85 433.23Z" fill="#FFC727"/>
<path opacity="0.3" d="M235.85 433.23C236.14 432.23 237.58 431.57 238.5 431.46C239.42 431.35 241.13 432.11 241.03 432.76C240.93 433.41 239.63 433.98 239.41 434.45C239.19 434.92 238.51 435.93 237.83 435.66C237.15 435.39 235.52 434.34 235.85 433.23Z" fill="white"/>
</svg>
