<svg xmlns="http://www.w3.org/2000/svg" viewBox="0 0 1054.59 1054.59"><defs><style>.ec0d651d-db91-4199-af01-dec7749a74c4{fill:#969ba5;}.ef30fd52-2dbc-4ccf-9317-5b18aa6e5a8c{fill:#9e9d9c;}.b334d365-4054-4657-b885-db11aef91c03{fill:#20202a;}</style></defs><title>Asset 2</title><g id="bd2f6d79-231d-493a-8aaa-7bb564f88699" data-name="Layer 2"><g id="bc355de4-6905-4c7b-95c6-a152e5fb02a8" data-name="Layer 1"><path class="ec0d651d-db91-4199-af01-dec7749a74c4" d="M0,628.26l3.12-10.15A13.76,13.76,0,0,1,0,628.26Z"/><circle class="ef30fd52-2dbc-4ccf-9317-5b18aa6e5a8c" cx="527.29" cy="527.29" r="527.29"/><path class="b334d365-4054-4657-b885-db11aef91c03" d="M376.46,727.24c19.64-17.82,39.24-35.7,59-53.44q40.33-36.31,80.9-72.36c3.31-2.93,3.46-5.12,1.61-8.7-3.34-6.46-6.55-13-9.3-19.75-1.79-4.38-4.51-6.06-9.14-6.67a368.25,368.25,0,0,1-42.22-8.15c-5-1.29-8.79-3.49-9.42-9.15a3.44,3.44,0,0,0-.5-1.27c-19.25-34.86-16.12-72.15-11.86-109.57a5.68,5.68,0,0,0,.08-1.36c-.51-3.87,3.11-8.83.38-11.17-3.51-3-6.3,2.65-9.68,4-7.13,2.78-12.68.25-15.29-7.66-2.7-8.19-.61-16.88-2.67-25.15-.38-1.54-.21-3.21-.59-4.75-2.12-8.78-3.83-9.41-12-5.9-3.48,1.51-7.73,5.41-11.16,1.39-3-3.53.87-7.19,2.71-10.36,4.28-7.4,9.57-14.22,13.42-22.58a42.49,42.49,0,0,0-20,12.18A144.72,144.72,0,0,0,362.53,390c-2,3.18-3.81,4.31-7.61,2.8-34.49-13.77-60.2-35.69-69-73.55-.24-1,.29-2.36-2.09-3.4,1.87,18.44.42,36.72,8.56,53.68,2.85,5.94,5.14,12.17,8.11,18,2.51,5,2.15,7.57-4,8.48-4.28.64-8.48,1.46-12.86,1.4-8.93-.13-17.86,0-26.79-.05-11-.05-18.21-8.75-16.66-19.86,1-7.07-1.35-13.59-4.47-19.71a108,108,0,0,0-8.44-13.26c-5.21-7.33-5.75-14.18-3.35-23.49,4.86-18.83,10.17-37.93,8.76-57.87a15.53,15.53,0,0,0-3.95-9.12c-7.92-9.69-11.66-21.24-15.28-35.41,5.4,5.08,7.27,3.37,9.18-.59,2.13-4.42,6.69-6.8,10.43-9.72,18.73-14.63,32.77-33,43.25-54.13,2.61-.1,1.77,1.44,1.34,2.8-4.19,17.21-9.85,34.12-10.57,52.85,3.05-1.83,6-3.48,8.89-5.36s6-3.6,8.27-6.06c11-11.82,25.81-17,40-22.83,14.88-6.16,30.36-10.89,45.6-16.17a63.78,63.78,0,0,1,7.25-1.89c1.13-.25,2.44-.15,3,1,.66,1.31-.57,2.14-1.39,2.74a85.76,85.76,0,0,1-9,6.19,154.12,154.12,0,0,1-26.32,11.21c-11.22,3.73-21.29,9.1-29.35,18-5.39,6-12.23,10.29-18.71,15-14.56,10.54-16.23,19-5.72,33.25,5.15,7,7.69,14.06,7.25,22.79a278.46,278.46,0,0,0,.78,34.84c21.9-22.82,39.46-49.06,58-74.47,18.65-25.6,34.48-53,49.38-81.05-2.72,16.56-5.3,33-11.19,48.85C374.29,248.29,355.75,301,334.71,352.84c-1.6,3.94-2.56,8.13-4.36,14,6.3-5.83,9.34-11.69,12.32-17.39,2.82-5.39,6.84-8.74,12.21-11.27,14.81-7,30-13.26,44.05-21.72,7.48-4.49,14.63-9.4,20.41-16a49.43,49.43,0,0,1,26.42-16.11,66.1,66.1,0,0,0,28.17-14.8,20.64,20.64,0,0,1,6.34-3.74c-4.31,8.1-10.65,14.43-17,20.7-6.67,6.59-13.47,13.07-20.46,19.33-6.8,6.08-13.93,11.82-20.58,18.63,11-8.37,24.15-8.66,36.78-10.85,2.52-3.13,6-4.86,9.42-6.75,24.93-13.8,45.82-32.44,64.39-53.84,6.74-7.76,10.35-17.16,14-26.58,6.83-17.75,12-36,17.44-54.21.76-2.57,1-6.76,3.78-6.66,3.35.11,3.18,4.39,3.71,7.17,1.31,6.89-.89,13.64-1,20.49a260.21,260.21,0,0,0,1.59,37.5c3.78-1.21,6.23-4.64,9.38-7,3.31-2.44,6.41-5.24,10.33-6.68,5.05-1.85,8-.12,8.7,5.26a31.53,31.53,0,0,1-1.09,12.91,405.82,405.82,0,0,1-19.16,52.14,26,26,0,0,1-4.85,6.6c-7.33,14.53-18.65,22.51-35.24,24.48-20.77,2.46-38.93,12.16-56.08,23.77-6,4.07-12.12,8-18.28,12a4.32,4.32,0,0,0,4.64-.41C495,338.62,522,329.73,548.71,319.93c5.51-2,10.6-5.2,15.88-7.84C575.8,305,587,298,598.62,291.55a28.68,28.68,0,0,1,4.24-2.25c1.46-.51,3.14-1.5,4.48-.11s.42,3.05-.3,4.45A145.36,145.36,0,0,1,596,311c-5.85,8.34-11.78,16.62-18.35,26.24,15.3-2.77,28.51-6.91,41.64-11.4,2.66-.91,6.34-3.76,8.09-1,1.9,3-2.39,4.82-4.46,6.6q-12.72,11-24.4,23.09c-1.9,2-4.11,3.9-3.1,7.1s3.75,4.44,6.84,4.89c11.54,1.68,23,3.94,34.59,5.16,8.46.9,16.78-1.92,25-3.73,16.94-3.73,34.21-6.76,48.65-17.56a156,156,0,0,0,16.31-13.61c1.44-1.43,3.18-3.39,5.28-2.48,2.44,1.06,2.21,3.85,2,6.08q-1.11,9.89-2.77,19.69c-1.84,10.81-2.47,21.85-5.54,32.42-1.43,4.9-1,9,2.84,12.48,3.74,6.53.94,13.51,1.43,20.26,0,7.67,6,16.65,13,19.2,5.51,2,9.15.6,11.44-5.06s5.42-10.09,11.21-12.27c14.44-5.44,24-16.34,32.42-28.61,1.78-2.59,3.46-8,6.9-5.91,3.11,1.9-.63,6.17-2.06,9.07-14.6,29.56-26.15,40.87-55.82,54.68,2.53,4.33,7,7,9.31,11.42,3.58,6.67,6.74,13.5,9.81,20.41,6.59,14.88,16,27.19,31.92,33.22,2.36.89,6.24,1.46,4.49,5.32-1.59,3.52-5,2.59-7.79,1.27a118.72,118.72,0,0,1-37.11-26.71c-.77-.83-1.46-1.74-1.89-2.12,3.8,5.48,6.22,12.15,7.83,19.08,1.47,6.37,3.81,12.22,8.16,17.18,2.52,2.87,3.9,5.81.2,8.83-3,2.48-1.7,4,1,5.62,4.48,2.68,9.89,3.82,13.38,8.12,5.05,1.25,9.43,4.39,14.92,4.59,7.52.28,13.28-2.38,17.5-8.6a106,106,0,0,1,22.29-24c-4.58,8.27-8.9,16.7-13.82,24.77s-6.82,16.4-5.06,25.52c.61,3.14-.09,4.3-3.22,4-17.46-1.63-34.54,3.33-51.92,3.07-3.48,0-6,1.94-8.69,3.55-7.67,4.59-9.76,3.53-10.94-5.14-1.11-8.27-.37-16.55.68-24.64a170.59,170.59,0,0,0,.76-30.13c-.21-4.57-2.88-8.49-4.86-12.52-1.16-2.36-1-.76-2,.42-1.83,2.2-2.79-.76-3.69-1.74-8.25-8.86-15.61-18.54-25-26.39-2.67-2.25-5-3.06-8.61-2-20,5.67-21.74,7.57-24.24,28.59-.29,2.47-.57,5-.87,7.52,2.8,1.15,5.79.55,8.71.3,4.14-.35,7.79-.81,7.21-7-.44-4.66,3.31-7.37,7.88-7.87a35.28,35.28,0,0,1,8.89.2c4.29.62,9.16.67,12.6,2.84,4.57,2.89.12,7.86.52,12,.84,8.7,2.12,17.23,5.25,25.4,2.19,5.69,1.33,10.6-2.84,15.15-6.1,6.64-10.67,14.66-18.54,21-.35-5.18-.06-9.5-1.5-13.63-1-3-2.42-5-5.88-5.86-8.52-2.11-9.54-1.79-9.46,7.17.05,4.95-1.29,8.24-5.85,10.11a3.58,3.58,0,0,0-.56.4c-15.06,10-16.1,10-31,.3a7,7,0,0,1-1.69-1.15c-3-3.69-.18-24.46,3.83-27.16,7.58-5.1,15-10.21,25-10,4.74.11,9.19-2.41,13.36-6.31-5.16-1.75-9.86-3.23-14.49-4.94-2.31-.85-4.64-1.53-6.7-3.24-6.61-5.47-11.76-5.06-15.51,2.66-10.19,21-29.09,33.07-46.17,47.14-2.9,2.39-5.22-.74-6.7.18-4.21,2.61-8.67,5.43-10.67,10.32-.92,2.26-1.69,5.05-1.22,7.33,3.1,15,8.38,28.39,24.74,33.83,5.51,1.83,9.36,9.27,8.41,15.82-.37,2.55,1.39,3.38,2.59,4.25,5.73,4.13,6.39,9.51,4.29,15.62s.15,9.87,5.47,12.88c4.81,2.72,9.77,5.12,15.14,6.09s10.35,1.4,12.58,8c-.3-10.81,5.85-17.93,12.52-26.44,4.51,28.41,12.71,54.64,18.33,81.47.88,4.19,3.06,6.72,7.94,8.62-5.32,2.39-11.53,2.95-10.12,10.07-12.21,11.28-21.26,26.42-38.24,32.27,3.09,8.51-1.58,18.92-10.62,22.49-.43.17-.78.52-1.21.65-9.79,3-18.52,6.06-21.57,18.34-3,11.91-14.75,17.84-25.13,19.28-9.6,1.33-18.2,4.74-27.35,6.73-4.17.91-6.7,2.38-7.12,6.75-.46,4.83,1.9,7.85,6.18,9.48,2.48.94,6.24.54,6.71,3.73.52,3.58-2.89,5.55-5.56,7.12-6,3.53-12,7.21-18.43,9.74-2.85,1.12-6.47.87-10.18-1.27-6.45-3.73-13.57-8.4-21.64-3.26-2.75,1.76-3.53-.3-3.43-2.07.74-12.74-8.16-16.81-17.8-20.62-5.3-2.09-10-5-12.27-11-1.79-4.7-7-6.24-11.12-8.68-11-6.54-13.52-11.86-11.42-24.32.95-5.66,3.34-7,8.37-3.29a199.05,199.05,0,0,1,27.95,24.23c1.89,2,3.53,3.45,6.16,3.51,14.11.31,28.21.48,42.57-.88-1-3.16-3.69-3.8-5.54-5.3-5.74-4.67-8.39-12.91-6.26-19.67.58-1.83,1.85-2.32,3.62-2.49a11.64,11.64,0,0,1,7.23,1.74c11.12,7.07,23.58,6.18,35.85,6.61,2.3.08,3.8-.41,4.73-2.75,3.27-8.26,6.46-16.53,8.49-25.19,1-4.41.42-7.37-5.55-6.76-8.47.86-16.82-.72-25.18-2.18-4.11-.72-8.36-1.54-12.75.53-3.44,1.62-7,.39-9.81-2.76-3.86-4.35-7.11-9.1-8.23-14.76-2-10.11-6.23-18.41-18.14-23.16,8,0,13.36,2,18.78,3.51,4.8,1.37,7.37-.25,9.05-4.58s2.94-9.29,1.77-13.4c-4.06-14.31-.52-28.2,1.26-42.14,2.4-18.77,5.49-37.44,8.53-56.12a5,5,0,0,0-1.92-5.27c-5.38-4.66-10.91-9.11-17.86-11.17-3.71-1.1-6.24-3.34-6.66-7-1.08-9.39-7-16.63-11-27.18-2.28,3.18-3.49,5.5-5.27,7.24-40.79,39.85-80.94,80.36-123.87,118-2.72,2.39-5.27,5.07-8.72,6.51C379.47,732.69,376.22,732.85,376.46,727.24Z"/><path class="b334d365-4054-4657-b885-db11aef91c03" d="M518.83,810.69c-6.69-11.65-16.52-14.12-29.07-13.64-24.2.94-48.46.27-72.7.28-6.08,0-13.5-.14-15.19-6.42-1.62-6.06,5.72-8.45,10.19-11.27,10.6-6.7,23.29-9,33.86-15.87,1.61-1,3-.24,4.52.29,22.07,7.55,43,17.44,61.95,31.12C517.41,798.8,521.54,803.19,518.83,810.69Z"/><path class="b334d365-4054-4657-b885-db11aef91c03" d="M312.47,624.21c5.14,11.38,16.94,13.19,26.65,3.5,3.53-3.53,6.06-3.31,10-1.81,16.4,6.29,33.44,8.62,51,8,6.75-.25,13.51,0,21,0-26.94,12.33-53.87,18.42-82.78,12.86-8.45-1.62-17.2-1.95-25.63-4-7.15-1.75-9.21-9.14-4.2-14.67C309.68,626.66,311.09,625.5,312.47,624.21Z"/><path class="b334d365-4054-4657-b885-db11aef91c03" d="M376.46,727.24c.82,3.86,4.36,3.22,6.93,4.19-3,2.41-.65,3.69,1.07,5.15,9.42,8,18.67,16.21,28.31,23.94,3.36,2.69,3.37,5,1.06,7.83-3,3.63-4.23-.69-5.57-1.83q-53.85-45.85-107.47-92c-1.37-1.17-2.67-2.41-4.16-3.76,4-3.82,6.88-3.53,10.94,0,20.68,18.07,41.66,35.78,62.61,53.54C371.92,725.84,373.28,728.67,376.46,727.24Z"/></g></g></svg>