<svg xmlns="http://www.w3.org/2000/svg" version="1.1" xmlns:xlink="http://www.w3.org/1999/xlink" xmlns:svgjs="http://svgjs.com/svgjs" width="512" height="512" x="0" y="0" viewBox="0 0 512 512" style="enable-background:new 0 0 512 512" xml:space="preserve" class=""><g><path xmlns="http://www.w3.org/2000/svg" d="m232.535156 510.933594c5.105469.476562 10.296875.796875 15.429688.953125l.457031-14.992188c-4.824219-.148437-9.699219-.449219-14.496094-.894531zm0 0" fill="#ffc107" data-original="#000000" class=""></path><path xmlns="http://www.w3.org/2000/svg" d="m151.507812 488.84375c4.648438 2.1875 9.433594 4.257812 14.222657 6.148438l5.507812-13.953126c-4.492187-1.773437-8.976562-3.714843-13.339843-5.765624zm0 0" fill="#ffc107" data-original="#000000" class=""></path><path xmlns="http://www.w3.org/2000/svg" d="m191.078125 503.421875c4.953125 1.347656 10.015625 2.554687 15.046875 3.589844l3.015625-14.695313c-4.722656-.96875-9.472656-2.101562-14.117187-3.367187zm0 0" fill="#ffc107" data-original="#000000" class=""></path><path xmlns="http://www.w3.org/2000/svg" d="m26.417969 181.867188 14.046875 5.253906c1.6875-4.511719 3.546875-9.03125 5.519531-13.433594l-13.6875-6.136719c-2.105469 4.691407-4.082031 9.507813-5.878906 14.316407zm0 0" fill="#ffc107" data-original="#000000" class=""></path><path xmlns="http://www.w3.org/2000/svg" d="m349.808594 476.792969 6.171875 13.671875c4.675781-2.113282 9.34375-4.398438 13.871093-6.800782l-7.023437-13.253906c-4.253906 2.253906-8.632813 4.402344-13.019531 6.382813zm0 0" fill="#ffc107" data-original="#000000" class=""></path><path xmlns="http://www.w3.org/2000/svg" d="m312.496094 489.867188 3.714844 14.535156c4.976562-1.273438 9.976562-2.722656 14.859374-4.308594l-4.632812-14.265625c-4.578125 1.488281-9.269531 2.847656-13.941406 4.039063zm0 0" fill="#ffc107" data-original="#000000" class=""></path><path xmlns="http://www.w3.org/2000/svg" d="m273.484375 496.304688 1.160156 14.957031c5.125-.398438 10.296875-.960938 15.371094-1.679688l-2.097656-14.855469c-4.765625.675782-9.621094 1.207032-14.433594 1.578126zm0 0" fill="#ffc107" data-original="#000000" class=""></path><path xmlns="http://www.w3.org/2000/svg" d="m115.0625 467.671875c4.207031 2.957031 8.5625 5.8125 12.9375 8.492187l7.832031-12.792968c-4.109375-2.515625-8.195312-5.199219-12.144531-7.972656zm0 0" fill="#ffc107" data-original="#000000" class=""></path><path xmlns="http://www.w3.org/2000/svg" d="m11.019531 264.414062 15 .1875c.058594-4.835937.269531-9.71875.632813-14.511718l-14.960938-1.121094c-.382812 5.101562-.609375 10.300781-.671875 15.445312zm0 0" fill="#ffc107" data-original="#000000" class=""></path><path xmlns="http://www.w3.org/2000/svg" d="m34.203125 328.535156-14.464844 3.980469c1.363281 4.953125 2.90625 9.921875 4.578125 14.777344l14.179688-4.894531c-1.570313-4.550782-3.015625-9.214844-4.292969-13.863282zm0 0" fill="#ffc107" data-original="#000000" class=""></path><path xmlns="http://www.w3.org/2000/svg" d="m27.054688 289.648438-14.933594 1.429687c.488281 5.109375 1.148437 10.273437 1.957031 15.339844l14.816406-2.367188c-.761719-4.757812-1.382812-9.601562-1.839843-14.402343zm0 0" fill="#ffc107" data-original="#000000" class=""></path><path xmlns="http://www.w3.org/2000/svg" d="m15.136719 222.488281 14.746093 2.746094c.882813-4.734375 1.925782-9.507813 3.109376-14.179687l-14.542969-3.675782c-1.261719 4.980469-2.375 10.0625-3.3125 15.109375zm0 0" fill="#ffc107" data-original="#000000" class=""></path><path xmlns="http://www.w3.org/2000/svg" d="m79.3125 97.976562c-3.5625 3.703126-7.050781 7.5625-10.371094 11.476563l11.441406 9.699219c3.113282-3.671875 6.390626-7.300782 9.738282-10.777344zm0 0" fill="#ffc107" data-original="#000000" class=""></path><path xmlns="http://www.w3.org/2000/svg" d="m111.019531 70.234375c-4.132812 3.03125-8.230469 6.242187-12.175781 9.539063l9.617188 11.511718c3.703124-3.097656 7.550781-6.109375 11.429687-8.957031zm0 0" fill="#ffc107" data-original="#000000" class=""></path><path xmlns="http://www.w3.org/2000/svg" d="m34.402344 372.019531c2.195312 4.632813 4.566406 9.257813 7.054687 13.75l13.121094-7.269531c-2.332031-4.210938-4.558594-8.554688-6.613281-12.898438zm0 0" fill="#ffc107" data-original="#000000" class=""></path><path xmlns="http://www.w3.org/2000/svg" d="m82.800781 440.574219c3.632813 3.625 7.429688 7.183593 11.285157 10.578125l9.90625-11.265625c-3.621094-3.183594-7.1875-6.523438-10.597657-9.929688zm0 0" fill="#ffc107" data-original="#000000" class=""></path><path xmlns="http://www.w3.org/2000/svg" d="m55.644531 408.382812c2.957031 4.1875 6.089844 8.339844 9.3125 12.339844l11.683594-9.40625c-3.023437-3.757812-5.964844-7.65625-8.742187-11.585937zm0 0" fill="#ffc107" data-original="#000000" class=""></path><path xmlns="http://www.w3.org/2000/svg" d="m65.230469 139.128906-12.425781-8.398437c-2.878907 4.257812-5.65625 8.664062-8.253907 13.082031l12.929688 7.601562c2.441406-4.152343 5.046875-8.285156 7.75-12.285156zm0 0" fill="#ffc107" data-original="#000000" class=""></path><path xmlns="http://www.w3.org/2000/svg" d="m499.566406 252.800781c-.304687-5.136719-.777344-10.316406-1.402344-15.398437l-14.886718 1.828125c.585937 4.773437 1.027344 9.636719 1.316406 14.460937zm0 0" fill="#ffc107" data-original="#000000" class=""></path><path xmlns="http://www.w3.org/2000/svg" d="m460.335938 163.890625c2.179687 4.300781 4.25 8.722656 6.148437 13.144531l13.78125-5.917968c-2.023437-4.710938-4.226563-9.425782-6.550781-14.007813zm0 0" fill="#ffc107" data-original="#000000" class=""></path><path xmlns="http://www.w3.org/2000/svg" d="m475.085938 200.554688c1.398437 4.601562 2.671874 9.316406 3.78125 14.007812l14.597656-3.449219c-1.179688-5-2.535156-10.019531-4.03125-14.925781zm0 0" fill="#ffc107" data-original="#000000" class=""></path><path xmlns="http://www.w3.org/2000/svg" d="m423.414062 111.054688 10.976563-10.226563c-3.5-3.753906-7.167969-7.445313-10.898437-10.976563l-10.308594 10.894532c3.503906 3.316406 6.945312 6.785156 10.230468 10.308594zm0 0" fill="#ffc107" data-original="#000000" class=""></path><path xmlns="http://www.w3.org/2000/svg" d="m439.484375 130.292969c2.886719 3.863281 5.6875 7.867187 8.320313 11.902343l12.558593-8.203124c-2.804687-4.296876-5.785156-8.558594-8.859375-12.675782zm0 0" fill="#ffc107" data-original="#000000" class=""></path><path xmlns="http://www.w3.org/2000/svg" d="m440.960938 402.710938 12.113281 8.847656c3.03125-4.148438 5.964843-8.449219 8.730469-12.78125l-12.648438-8.0625c-2.59375 4.066406-5.351562 8.101562-8.195312 11.996094zm0 0" fill="#ffc107" data-original="#000000" class=""></path><path xmlns="http://www.w3.org/2000/svg" d="m483.570312 293.238281 14.910157 1.664063c.566406-5.09375.980469-10.277344 1.230469-15.414063l-14.984376-.722656c-.230468 4.820313-.621093 9.691406-1.15625 14.472656zm0 0" fill="#ffc107" data-original="#000000" class=""></path><path xmlns="http://www.w3.org/2000/svg" d="m461.457031 368.875 13.453125 6.632812c2.273438-4.613281 4.429688-9.359374 6.40625-14.101562l-13.847656-5.765625c-1.855469 4.449219-3.875 8.902344-6.011719 13.234375zm0 0" fill="#ffc107" data-original="#000000" class=""></path><path xmlns="http://www.w3.org/2000/svg" d="m475.8125 332.003906 14.398438 4.210938c1.4375-4.921875 2.738281-9.960938 3.863281-14.980469l-14.636719-3.28125c-1.054688 4.707031-2.277344 9.4375-3.625 14.050781zm0 0" fill="#ffc107" data-original="#000000" class=""></path><path xmlns="http://www.w3.org/2000/svg" d="m414.976562 432.539062 10.425782 10.785157c3.691406-3.570313 7.316406-7.304688 10.773437-11.09375l-11.078125-10.109375c-3.25 3.558594-6.65625 7.066406-10.121094 10.417968zm0 0" fill="#ffc107" data-original="#000000" class=""></path><path xmlns="http://www.w3.org/2000/svg" d="m147.007812 48.332031c-4.597656 2.277344-9.1875 4.738281-13.632812 7.308594l7.5 12.988281c4.175781-2.414062 8.480469-4.722656 12.796875-6.859375zm0 0" fill="#ffc107" data-original="#000000" class=""></path><path xmlns="http://www.w3.org/2000/svg" d="m353.507812 43.4375-6.015624 13.742188c4.40625 1.929687 8.820312 4.03125 13.109374 6.246093l6.878907-13.332031c-4.570313-2.359375-9.273438-4.597656-13.972657-6.65625zm0 0" fill="#ffc107" data-original="#000000" class=""></path><path xmlns="http://www.w3.org/2000/svg" d="m390.511719 63.625-8.292969 12.5c4.015625 2.664062 8 5.492188 11.84375 8.40625l9.066406-11.949219c-4.09375-3.105469-8.339844-6.117187-12.617187-8.957031zm0 0" fill="#ffc107" data-original="#000000" class=""></path><path xmlns="http://www.w3.org/2000/svg" d="m384.289062 457.484375 8.433594 12.40625c4.246094-2.886719 8.453125-5.941406 12.503906-9.085937l-9.191406-11.851563c-3.804687 2.949219-7.753906 5.820313-11.746094 8.53125zm0 0" fill="#ffc107" data-original="#000000" class=""></path><path xmlns="http://www.w3.org/2000/svg" d="m484.5 0c-12.5625 0-23.179688 8.472656-26.453125 20h-175.046875v-20h-55v20h-174.046875c-3.273437-11.527344-13.890625-20-26.453125-20-15.164062 0-27.5 12.335938-27.5 27.5s12.335938 27.5 27.5 27.5c12.5625 0 23.179688-8.472656 26.453125-20h174.046875v20h55v-20h175.046875c3.273437 11.527344 13.890625 20 26.453125 20 15.164062 0 27.5-12.335938 27.5-27.5s-12.335938-27.5-27.5-27.5zm-457 40c-6.894531 0-12.5-5.605469-12.5-12.5s5.605469-12.5 12.5-12.5 12.5 5.605469 12.5 12.5-5.605469 12.5-12.5 12.5zm240.5 0h-25v-25h25zm216.5 0c-6.894531 0-12.5-5.605469-12.5-12.5s5.605469-12.5 12.5-12.5 12.5 5.605469 12.5 12.5-5.605469 12.5-12.5 12.5zm0 0" fill="#ffc107" data-original="#000000" class=""></path><path xmlns="http://www.w3.org/2000/svg" d="m395.726562 286.59375-140.226562-220.050781-140.226562 220.050781 5.992187 4.097656c34.585937 23.648438 55.234375 62.78125 55.234375 104.675782v61.132812h15v-20.5h128v20.5h15v-61.132812c0-41.894532 20.644531-81.027344 55.230469-104.675782zm-122.726562-15.09375c0 9.648438-7.851562 17.5-17.5 17.5s-17.5-7.851562-17.5-17.5 7.851562-17.5 17.5-17.5 17.5 7.851562 17.5 17.5zm46.5 149.5h-128v-16h128zm.113281-31h-128.226562c-1.601563-42.394531-22.0625-81.777344-55.757813-107.4375l112.371094-176.335938v133.65625c-14.316406 3.394532-25 16.277344-25 31.617188 0 17.921875 14.578125 32.5 32.5 32.5s32.5-14.578125 32.5-32.5c0-15.339844-10.683594-28.222656-25-31.617188v-133.65625l112.371094 176.335938c-33.695313 25.660156-54.15625 65.042969-55.757813 107.4375zm0 0" fill="#ffc107" data-original="#000000" class=""></path><path xmlns="http://www.w3.org/2000/svg" d="m248 351.5h15v15h-15zm0 0" fill="#ffc107" data-original="#000000" class=""></path><path xmlns="http://www.w3.org/2000/svg" d="m248 321.5h15v15h-15zm0 0" fill="#ffc107" data-original="#000000" class=""></path></g></svg>