<svg xmlns="http://www.w3.org/2000/svg" version="1.1" xmlns:xlink="http://www.w3.org/1999/xlink" xmlns:svgjs="http://svgjs.com/svgjs" width="512" height="512" x="0" y="0" viewBox="0 0 512.003 512.003" style="enable-background:new 0 0 512 512" xml:space="preserve" class=""><g>
<g xmlns="http://www.w3.org/2000/svg">
	<g>
		<path d="M479.779,46.002H32.223C14.455,46.002,0,60.457,0,78.224v355.555c0,17.768,14.455,32.222,32.223,32.222h29.999    c5.522,0,10-4.477,10-10s-4.478-10-10-10H32.223c-6.739,0-12.223-5.483-12.223-12.222V126.002h127.373    c2.652,0,5.196-1.054,7.071-2.929l17.071-17.071h231.521c5.522,0,10-4.477,10-10s-4.478-10-10-10H167.373    c-0.329,0-0.658,0.018-0.986,0.05c-0.152,0.015-0.3,0.043-0.45,0.065c-0.173,0.025-0.346,0.045-0.517,0.079    c-0.171,0.034-0.337,0.081-0.504,0.123c-0.148,0.037-0.298,0.07-0.444,0.114c-0.166,0.05-0.325,0.112-0.487,0.17    c-0.146,0.052-0.292,0.1-0.436,0.16c-0.152,0.063-0.299,0.137-0.447,0.208c-0.147,0.069-0.295,0.135-0.439,0.212    c-0.143,0.077-0.279,0.164-0.418,0.247c-0.141,0.085-0.284,0.164-0.422,0.257c-0.152,0.102-0.296,0.215-0.442,0.325    c-0.115,0.086-0.233,0.166-0.344,0.257c-0.253,0.208-0.497,0.427-0.728,0.658c-0.002,0.002-0.004,0.003-0.005,0.005    l-17.071,17.071H20V78.224c0-6.739,5.483-12.222,12.223-12.222H479.78c6.739,0,12.223,5.483,12.223,12.222v7.777h-20    c-5.522,0-10,4.477-10,10s4.478,10,10,10h20v327.778c0,6.739-5.483,12.222-12.223,12.222H131.188c-5.522,0-10,4.477-10,10    s4.478,10,10,10H479.78c17.768,0,32.223-14.455,32.223-32.222V78.224C512.002,60.457,497.547,46.002,479.779,46.002z" fill="#ffc107" data-original="#000000" class=""></path>
	</g>
</g>
<g xmlns="http://www.w3.org/2000/svg">
	<g>
		<path d="M102.457,446.002h-0.27c-5.522,0-10,4.477-10,10s4.478,10,10,10h0.27c5.522,0,10-4.477,10-10    S107.979,446.002,102.457,446.002z" fill="#ffc107" data-original="#000000" class=""></path>
	</g>
</g>
<g xmlns="http://www.w3.org/2000/svg">
	<g>
		<path d="M44.77,76.002H44.5c-5.522,0-10,4.477-10,10s4.478,10,10,10h0.27c5.522,0,10-4.477,10-10S50.292,76.002,44.77,76.002z" fill="#ffc107" data-original="#000000" class=""></path>
	</g>
</g>
<g xmlns="http://www.w3.org/2000/svg">
	<g>
		<path d="M84.77,76.002H84.5c-5.522,0-10,4.477-10,10s4.478,10,10,10h0.27c5.522,0,10-4.477,10-10S90.292,76.002,84.77,76.002z" fill="#ffc107" data-original="#000000" class=""></path>
	</g>
</g>
<g xmlns="http://www.w3.org/2000/svg">
	<g>
		<path d="M124.77,76.002h-0.269c-5.522,0-10,4.477-10,10s4.478,10,10,10h0.269c5.522,0,10-4.477,10-10    S130.292,76.002,124.77,76.002z" fill="#ffc107" data-original="#000000" class=""></path>
	</g>
</g>
<g xmlns="http://www.w3.org/2000/svg">
	<g>
		<path d="M432.036,86.002h-0.269c-5.522,0-10,4.477-10,10s4.478,10,10,10h0.269c5.522,0,10-4.477,10-10    S437.558,86.002,432.036,86.002z" fill="#ffc107" data-original="#000000" class=""></path>
	</g>
</g>
<g xmlns="http://www.w3.org/2000/svg">
	<g>
		<path d="M330.132,192.935c-1.731-6.462-5.862-11.855-11.631-15.185c-11.937-6.894-27.259-2.788-34.15,9.15l-100,173.205    c-3.331,5.769-4.212,12.505-2.479,18.966c1.731,6.461,5.861,11.854,11.63,15.184c3.837,2.215,8.101,3.347,12.429,3.347    c2.178,0,4.373-0.287,6.536-0.866c6.462-1.731,11.854-5.862,15.185-11.631l100-173.205    C330.983,206.13,331.864,199.396,330.132,192.935z M310.332,201.899l-100,173.206c-1.354,2.349-4.484,3.185-6.83,1.83    c-2.348-1.355-3.186-4.483-1.831-6.83l100-173.205c0.914-1.583,2.635-2.479,4.378-2.479c0.842,0,1.688,0.208,2.452,0.649    c1.541,0.89,2.11,2.287,2.313,3.04C311.015,198.863,311.221,200.358,310.332,201.899z" fill="#ffc107" data-original="#000000" class=""></path>
	</g>
</g>
<g xmlns="http://www.w3.org/2000/svg">
	<g>
		<path d="M139.154,341.002c-0.649,0-1.109-0.364-1.326-0.58c-0.217-0.217-0.58-0.677-0.58-1.327v-26.186    c0-9.514-2.644-18.831-7.551-26.907c4.907-8.076,7.551-17.393,7.551-26.907v-26.186c0-0.617,0.315-1.062,0.58-1.327    s0.71-0.58,1.326-0.58c13.785,0,25-11.215,25-25c0-13.785-11.215-25-25-25c-13.833,0-26.859,5.408-36.68,15.228    c-9.819,9.82-15.227,22.846-15.227,36.679v26.186c0,0.649-0.364,1.11-0.581,1.327c-0.265,0.265-0.71,0.58-1.326,0.58    c-13.785,0-25,11.215-25,25c0,13.785,11.215,25,25,25c0.649,0,1.11,0.364,1.326,0.58c0.217,0.217,0.581,0.678,0.581,1.327v26.186    c0,13.833,5.407,26.859,15.227,36.679c9.819,9.82,22.846,15.228,36.68,15.228c13.785,0,25-11.215,25-25    C164.154,352.217,152.939,341.002,139.154,341.002z M139.153,371c-8.491,0-16.495-3.327-22.537-9.369    c-6.042-6.042-9.369-14.046-9.369-22.538v-26.186c0-5.823-2.287-11.316-6.439-15.469c-4.153-4.15-9.646-6.436-15.468-6.436    c-2.757,0-5-2.243-5-5c0-2.757,2.243-5,5-5c5.823,0,11.316-2.287,15.469-6.438c4.151-4.152,6.438-9.646,6.438-15.469v-26.186    c0-8.491,3.327-16.496,9.369-22.538s14.046-9.37,22.537-9.37c2.757,0,5,2.243,5,5c0,2.757-2.243,5-5,5    c-5.823,0-11.316,2.287-15.469,6.438c-4.151,4.151-6.438,9.645-6.438,15.468v26.186c0,7.463-2.656,14.734-7.479,20.474    c-3.125,3.719-3.125,9.146,0,12.865c4.822,5.74,7.479,13.011,7.479,20.475v26.186c0,5.824,2.286,11.317,6.438,15.469    c4.152,4.152,9.646,6.438,15.469,6.438c2.757,0,5,2.243,5,5C144.153,368.757,141.91,371,139.153,371z" fill="#ffc107" data-original="#000000" class=""></path>
	</g>
</g>
<g xmlns="http://www.w3.org/2000/svg">
	<g>
		<path d="M426.664,261.001c-0.616,0-1.062-0.315-1.328-0.582c-0.265-0.264-0.579-0.708-0.579-1.325v-26.186    c0-13.834-5.408-26.86-15.228-36.679c-9.82-9.82-22.847-15.228-36.68-15.228c-13.785,0-25,11.215-25,25c0,13.785,11.215,25,25,25    c0.616,0,1.062,0.315,1.326,0.58c0.264,0.265,0.58,0.709,0.58,1.327v26.186c0,9.514,2.644,18.831,7.551,26.907    c-4.907,8.076-7.551,17.393-7.551,26.907v26.187c0,0.65-0.363,1.11-0.58,1.327c-0.265,0.265-0.71,0.58-1.326,0.58    c-13.785,0-25,11.215-25,25c0,13.785,11.215,25,25,25c13.834,0,26.86-5.408,36.68-15.228c9.819-9.82,15.228-22.847,15.228-36.68    v-26.186c0-0.649,0.363-1.11,0.579-1.326c0.217-0.217,0.678-0.581,1.328-0.581c13.785,0,25-11.215,25-25    C451.664,272.216,440.449,261.001,426.664,261.001z M426.661,291.003c-5.823,0-11.316,2.286-15.47,6.438    c-4.151,4.151-6.438,9.645-6.438,15.468v26.186c0,8.491-3.327,16.495-9.37,22.538c-6.042,6.042-14.046,9.369-22.537,9.369    c-2.757,0-5-2.243-5-5c0-2.757,2.243-5,5-5c5.823,0,11.316-2.287,15.469-6.438c4.151-4.151,6.438-9.645,6.438-15.469v-26.186    c0-7.463,2.656-14.734,7.479-20.475c3.126-3.719,3.126-9.146,0.001-12.865c-4.822-5.74-7.479-13.011-7.479-20.474v-26.186    c0-5.824-2.286-11.317-6.438-15.468c-4.152-4.152-9.646-6.438-15.469-6.438c-2.757,0-5-2.243-5-5c0-2.757,2.243-5,5-5    c8.491,0,16.495,3.328,22.538,9.37c6.042,6.042,9.369,14.045,9.369,22.537v26.186c0,5.825,2.287,11.319,6.438,15.469    c4.152,4.152,9.646,6.438,15.469,6.438c2.757,0,5,2.243,5,5C431.661,288.759,429.418,291.003,426.661,291.003z" fill="#ffc107" data-original="#000000" class=""></path>
	</g>
</g>
<g xmlns="http://www.w3.org/2000/svg">
</g>
<g xmlns="http://www.w3.org/2000/svg">
</g>
<g xmlns="http://www.w3.org/2000/svg">
</g>
<g xmlns="http://www.w3.org/2000/svg">
</g>
<g xmlns="http://www.w3.org/2000/svg">
</g>
<g xmlns="http://www.w3.org/2000/svg">
</g>
<g xmlns="http://www.w3.org/2000/svg">
</g>
<g xmlns="http://www.w3.org/2000/svg">
</g>
<g xmlns="http://www.w3.org/2000/svg">
</g>
<g xmlns="http://www.w3.org/2000/svg">
</g>
<g xmlns="http://www.w3.org/2000/svg">
</g>
<g xmlns="http://www.w3.org/2000/svg">
</g>
<g xmlns="http://www.w3.org/2000/svg">
</g>
<g xmlns="http://www.w3.org/2000/svg">
</g>
<g xmlns="http://www.w3.org/2000/svg">
</g>
</g></svg>